SplineFontDB: 3.2
FontName: HershoMono-Regular
FullName: Hersho Mono Regular
FamilyName: Hersho Mono
Weight: Regular
Copyright: Copyright (c) 2023, Sim Domingo
UComments: "2023-9-4: Created with FontForge (http://fontforge.org)"
Version: 000.700
ItalicAngle: 0
UnderlinePosition: -83
UnderlineWidth: 41
Ascent: 833
Descent: 167
InvalidEm: 0
LayerCount: 2
Layer: 0 0 "Back" 1
Layer: 1 0 "Fore" 0
XUID: [1021 39 -546803219 6476244]
StyleMap: 0x0040
FSType: 0
OS2Version: 0
OS2_WeightWidthSlopeOnly: 0
OS2_UseTypoMetrics: 1
CreationTime: 1693767096
ModificationTime: 315532800
PfmFamily: 49
TTFWeight: 400
TTFWidth: 5
LineGap: 75
VLineGap: 0
OS2TypoAscent: 0
OS2TypoAOffset: 1
OS2TypoDescent: 0
OS2TypoDOffset: 1
OS2TypoLinegap: 75
OS2WinAscent: 0
OS2WinAOffset: 1
OS2WinDescent: 0
OS2WinDOffset: 1
HheadAscent: 0
HheadAOffset: 1
HheadDescent: 0
HheadDOffset: 1
OS2Vendor: 'PfEd'
Lookup: 6 0 0 "fixup_arrows_and_dashes" { "catch_short_options"  "catch_long_options"  "do_ht_comment_open"  "fixup_short_dashes_pre"  "fixup_short_dashes_post"  "fixup_mid_arrows"  "fixup_end_arrows"  "fixup_start_arrows"  } ['liga' ('DFLT' <'dflt' > 'latn' <'dflt' > ) ]
Lookup: 6 0 1 "fixup_double_arrows" { "fixup_double_greater_start"  "fixup_double_less_start"  "fixup_double_bar_start"  "fixup_double_greater_end"  "fixup_double_less_end"  "fixup_double_bar_end"  } ['liga' ('DFLT' <'dflt' > 'latn' <'dflt' > ) ]
Lookup: 6 0 0 "fixup_arrowhead_vs_operator" { "do_logical_or"  } ['liga' ('DFLT' <'dflt' > 'latn' <'dflt' > ) ]
Lookup: 5 0 0 "resolve_arrows_operator_ambiguity" { "do_logical_or_equals"  "do_greater_greater_greater"  "do_less_less_less"  "do_greater_greater_equal"  "do_less_less_equal"  "do_equal_operator"  } ['liga' ('DFLT' <'dflt' > 'latn' <'dflt' > ) ]
Lookup: 6 0 1 "colons_tweaks" { "fixup_colon_with_numerals"  } ['liga' ('DFLT' <'dflt' > 'latn' <'dflt' > ) ]
Lookup: 4 0 1 "auto ligatures" { "programming_symbols"  } ['liga' ('DFLT' <'dflt' > 'latn' <'dflt' > ) ]

StartChar: o
Encoding: 110 111 0
AltUni2: 0000ba.ffffffff.0
Width: 464
VWidth: 833
Flags: W
HStem: 0 54<171.159 289.438> 324 56<172.096 294.342>
VStem: 74 49<107.881 270.426> 341 49<111.368 273.978>
LayerCount: 2
Fore
SplineSet
232 324 m 0
 166 324 123 258 123 194 c 0
 123 124 159 54 232 54 c 0
 297 54 341 124 341 194 c 0
 341 260 304 324 232 324 c 0
232 380 m 0
 326 380 390 304 390 194 c 0
 390 82 324 0 232 0 c 0
 141 0 74 82 74 194 c 0
 74 305 138 380 232 380 c 0
EndSplineSet
Validated: 1
EndChar

StartChar: n
Encoding: 109 110 1
Width: 464
VWidth: 833
Flags: HW
HStem: 0 21G<77 131 330 384> 0 21G<77 131 330 384> 326 54<155.562 314.049>
VStem: 77 54<0 302.31 354 383> 330 54<0 306.551>
LayerCount: 2
Fore
SplineSet
79 383 m 1xb8
 133 383 l 1
 133 354 l 1
 165 371 202 380 235 380 c 3
 302 380 385 350 385 279 c 6
 385 0 l 5
 331 0 l 5
 331 279 l 6
 331 314 264 326 235 326 c 3
 187 326 133 296 133 279 c 2
 133 0 l 1
 79 0 l 1
 79 383 l 1xb8
EndSplineSet
Validated: 1
EndChar

StartChar: h
Encoding: 103 104 2
Width: 464
VWidth: 833
Flags: HW
HStem: 0 21G<75 129.074 332.916 387> 0 21G<75 129.074 332.916 387> 324 54<155.164 293.407> 628 20G<76.9383 131>
VStem: 77 54<0 300.453 353 648> 333 54<1 283.605>
LayerCount: 2
Fore
SplineSet
131 272 m 6xbc
 131 0 l 5
 78 0 l 5
 78 648 l 5
 132 648 l 5
 132 353 l 5
 162 370 192 378 229 378 c 7
 316 378 386 309 386 238 c 30
 386 0 l 5
 333 0 l 5
 333 238 l 6
 333 271 295 324 229 324 c 7
 170 324 131 287 131 272 c 6xbc
EndSplineSet
Validated: 1
EndChar

StartChar: i
Encoding: 104 105 4
Width: 464
VWidth: 833
Flags: HW
HStem: 1 63<260.091 388> 312 63<76 199.746> 457 93<178.949 254.901>
VStem: 172 90<463.793 542.272> 196 64<64.0154 312>
LayerCount: 2
Fore
SplineSet
284 64 m 26xe8
 388 64 l 1
 388 1 l 1
 228 1 l 2
 210 1 200 15 200 32 c 2xe8
 200 284 l 2
 200 302 195 312 175 312 c 2
 76 312 l 1
 76 375 l 1
 230 375 l 2
 247 375 262 360 262 343 c 2xf0
 262 343 260 191 260 92 c 24
 260 66 263 64 284 64 c 26xe8
216 457 m 3
 207 457 172 461 172 504 c 3
 172 530 192 550 216 550 c 3
 231 550 262 538 262 504 c 3xf0
 262 477 242 457 216 457 c 3
EndSplineSet
Validated: 1
EndChar

StartChar: j
Encoding: 105 106 5
Width: 464
VWidth: 833
Flags: HW
HStem: -167 54<178.145 283.842> -20 20G<85 139> -20 20G<85 139> 321 54<256 318.866> 457 93<297.632 372.39>
VStem: 85 54<-70.9383 0> 291 88<462.656 543.149> 320 54<-73.5558 319.599>
LayerCount: 2
Fore
SplineSet
334 457 m 3x9e
 294 457 291 492 291 504 c 3
 291 531 312 550 334 550 c 3
 353 550 379 536 379 504 c 3
 379 485 370 457 334 457 c 3x9e
320 307 m 2xbd
 320 314 314 321 306 321 c 10
 256 321 l 1
 256 375 l 1
 311 375 l 2
 345 375 374 348 374 315 c 2
 374 0 l 2xbd
 374 -87 316 -167 234 -167 c 0
 148 -167 85 -89 85 0 c 1
 139 0 l 1xdd
 139 -55 176 -113 234 -113 c 0
 289 -113 320 -51 320 0 c 2
 320 307 l 2xbd
EndSplineSet
Validated: 1
EndChar

StartChar: s
Encoding: 114 115 6
Width: 464
VWidth: 833
Flags: HW
HStem: 0 54<148.427 316.103> 164 54<158 323.339> 326 54<161.049 310.708>
VStem: 74 54<76.2514 105> 89 54<234.155 307.104> 336 54<73.981 148.783 263 301.467>
LayerCount: 2
Fore
SplineSet
89 274 m 3xec
 89 330 141 380 242 380 c 3
 335 380 384 317 384 263 c 1
 330 263 l 1
 330 291 310 326 242 326 c 3
 184 326 143 303 143 274 c 3xec
 143 238 173 218 242 218 c 3
 341 218 390 176 390 112 c 3
 390 45 325 0 242 0 c 3
 128 0 74 47 74 105 c 1
 128 105 l 1xf4
 128 78 175 54 242 54 c 3
 294 54 336 77 336 112 c 3
 336 147 304 164 242 164 c 3
 147 164 89 214 89 274 c 3xec
EndSplineSet
Validated: 1
EndChar

StartChar: v
Encoding: 117 118 7
Width: 464
VWidth: 833
Flags: HW
LayerCount: 2
Fore
SplineSet
77 382 m 5
 129 382 l 5
 226 87 l 5
 335 379 l 5
 387 379 l 5
 250 0 l 5
 198 1 l 5
 77 382 l 5
EndSplineSet
Validated: 1
EndChar

StartChar: w
Encoding: 118 119 8
Width: 464
VWidth: 833
Flags: HW
HStem: 0 21G<92.947 155.843 282.581 346.421> 0 21G<92.947 155.843 282.581 346.421> 360 20G<20 78.1065 199.144 262.47 384.47 444>
LayerCount: 2
Fore
SplineSet
20 380 m 2xa0
 74 380 l 1
 128 117 l 1
 205 380 l 1
 258 380 l 1
 317 116 l 1
 390 380 l 1
 444 380 l 1
 341 0 l 1
 287 0 l 1
 228 267 l 1
 150 0 l 1
 97 0 l 1
 20 380 l 2xa0
EndSplineSet
Validated: 1
EndChar

StartChar: d
Encoding: 99 100 9
Width: 464
VWidth: 833
Flags: HW
LayerCount: 2
Fore
SplineSet
132 186 m 4
 132 120 159 55 225 55 c 4
 280 55 331 116 331 186 c 4
 331 257 279 320 225 320 c 4
 166 320 132 256 132 186 c 4
386 662 m 5
 386 1 l 5
 332 1 l 5
 332 51 l 5
 299 18 259 1 225 1 c 4
 126 1 78 88 78 186 c 4
 78 288 131 374 225 374 c 4
 260 374 299 357 332 324 c 5
 332 662 l 5
 386 662 l 5
EndSplineSet
Validated: 1
EndChar

StartChar: p
Encoding: 111 112 10
Width: 464
VWidth: 833
Flags: HW
HStem: 1 54<175.607 286.224> 318 54<176.217 290.437> 360 20G<76 130>
VStem: 76 54<-167 44 105.605 265.215 328 380> 334 54<107.547 268.214>
LayerCount: 2
Fore
SplineSet
76 380 m 5xb8
 130 380 l 5xb8
 130 328 l 5
 156 355 192 372 234 372 c 4xd8
 328 372 388 286 388 183 c 4
 388 92 323 1 234 1 c 4
 193 1 157 17 130 44 c 5
 130 -167 l 5
 76 -167 l 5
 76 380 l 5xb8
334 183 m 4
 334 243 304 318 234 318 c 4xd8
 158 318 131 236 131 183 c 4
 131 122 167 55 234 55 c 4
 293 55 334 125 334 183 c 4
EndSplineSet
Validated: 1
EndChar

StartChar: b
Encoding: 97 98 11
Width: 464
VWidth: 833
Flags: HW
HStem: 1 54<179.082 281.072> 320 54<179.912 283.654>
VStem: 78 54<0 51 108.63 264.883 324 650> 332 54<111.004 263.518>
LayerCount: 2
Fore
SplineSet
332 186 m 4
 332 256 298 320 239 320 c 4
 185 320 133 257 133 186 c 4
 133 116 184 55 239 55 c 4
 305 55 332 120 332 186 c 4
78 662 m 5
 132 662 l 5
 132 324 l 5
 165 357 204 374 239 374 c 4
 333 374 386 288 386 186 c 4
 386 88 338 1 239 1 c 4
 205 1 165 18 132 51 c 5
 132 1 l 5
 78 1 l 5
 78 662 l 5
EndSplineSet
Validated: 1
EndChar

StartChar: q
Encoding: 112 113 12
Width: 464
VWidth: 833
Flags: HW
HStem: 1 54<175.607 286.224> 318 54<176.217 290.437> 360 20G<76 130>
VStem: 76 54<-167 44 105.605 265.215 328 380> 334 54<107.547 268.214>
LayerCount: 2
Fore
SplineSet
388 380 m 5xb8
 388 -167 l 5
 334 -167 l 5
 334 44 l 5
 307 17 271 1 230 1 c 4
 141 1 76 92 76 183 c 4
 76 286 136 372 230 372 c 4xd8
 272 372 308 355 334 328 c 5
 334 380 l 5xb8
 388 380 l 5xb8
130 183 m 4
 130 125 171 55 230 55 c 4
 297 55 333 122 333 183 c 4
 333 236 306 318 230 318 c 4xd8
 160 318 130 243 130 183 c 4
EndSplineSet
Validated: 1
EndChar

StartChar: g
Encoding: 102 103 13
Width: 464
VWidth: 833
Flags: HW
HStem: -168 54<173.847 293.748> 4 54<177.937 281.23> 328 54<173.842 283.375>
VStem: 85 54<101.837 289.165> 99 54<-91.6298 -49> 325 54<-81.6846 44 113.475 281.08 344 381>
LayerCount: 2
Fore
SplineSet
325 -41 m 3xec
 325 -4 325 44 325 44 c 1
 302 19 270 4 233 4 c 3
 135 4 85 100 85 203 c 0xf4
 85 292 139 382 233 382 c 3
 268 382 301 368 325 344 c 1
 325 381 l 1
 379 381 l 1
 379 -41 l 3
 379 -119 307 -168 233 -168 c 3
 165 -168 99 -119 99 -49 c 16
 153 -49 l 3
 153 -63 167 -114 233 -114 c 3
 290 -114 325 -65 325 -41 c 3xec
139 203 m 0
 139 145 155 58 233 58 c 3
 294 58 325 143 325 203 c 0
 325 257 291 328 233 328 c 3
 158 328 139 258 139 203 c 0
EndSplineSet
Validated: 1
EndChar

StartChar: e
Encoding: 100 101 14
Width: 464
VWidth: 833
Flags: HW
HStem: 2 54<179.566 324.899> 168 54<137 327> 329 54<172.422 295.824>
VStem: 80 57<104.5 168 222 291.924> 327 57<222 296.848>
LayerCount: 2
Fore
SplineSet
137 168 m 1
 140 148 157 56 234 56 c 0
 278 56 306 64 336 85 c 1
 367 39 l 1
 327 12 286 2 234 2 c 0
 140 2 80 89 80 195 c 0
 80 290 126 383 234 383 c 0
 340 383 384 300 384 195 c 2
 384 168 l 1
 137 168 l 1
327 222 m 3
 327 264 314 329 234 329 c 0
 165 329 137 271 137 222 c 0
 327 222 l 3
EndSplineSet
Validated: 1
EndChar

StartChar: c
Encoding: 98 99 15
Width: 464
VWidth: 833
Flags: HW
HStem: 0 54<186.054 308.3> 325 54<188.788 314.746>
VStem: 79 54<113.617 264.586>
LayerCount: 2
Fore
SplineSet
341 277 m 1
 312 315 283 325 242 325 c 3
 188 325 133 259 133 187 c 3
 133 126 180 54 242 54 c 3
 275 54 315 73 334 101 c 1
 380 71 l 1
 375 64 369 56 363 50 c 0
 333 20 288 0 242 0 c 3
 150 0 79 94 79 187 c 3
 79 279 151 379 242 379 c 3
 294 379 342 366 385 311 c 1
 341 277 l 1
EndSplineSet
Validated: 1
EndChar

StartChar: a
Encoding: 96 97 16
AltUni2: 0000aa.ffffffff.0
Width: 464
VWidth: 833
Flags: HW
HStem: -1 54<157.171 307.732> 175 54<156.933 307.968> 329 54<158.623 296.498>
VStem: 80 54<75.9882 152.384> 330 54<0 23 75.9375 153.32 204 299.266>
LayerCount: 2
Fore
SplineSet
330 115 m 0
 330 159 268 175 229 175 c 0
 191 175 134 155 134 113 c 0
 134 70 196 53 232 53 c 0
 266 53 330 68 330 115 c 0
235 383 m 0
 295 383 384 330 384 284 c 2
 384 -1 l 1
 330 -1 l 1
 330 23 l 1
 304 7 269 -1 232 -1 c 0
 150 -1 80 44 80 113 c 0
 80 183 151 229 229 229 c 0
 266 229 302 220 330 204 c 1
 330 280 l 1
 316 299 270 329 235 329 c 0
 178 329 140 294 137 294 c 2
 106 333 l 1
 106 333 155 383 235 383 c 0
EndSplineSet
Validated: 1
EndChar

StartChar: x
Encoding: 119 120 17
Width: 464
VWidth: 833
Flags: W
HStem: 0 23G<67 135 331 397> 0 23G<67 135 331 397> 148 86<216.415 246.141> 362 20G<67 135 331 397>
VStem: 67 68<0 34.5589 347.441 382> 331 66<2 34.7241>
LayerCount: 2
Fore
SplineSet
67 382 m 1xbc
 135 382 l 1
 135 378 228 234 231 234 c 0
 234 234 331 376 331 380 c 1
 397 380 l 1
 394 372 272 191 272 191 c 1
 272 191 397 5 397 2 c 1
 331 2 l 1
 331 6 234 148 231 148 c 0
 228 148 135 4 135 0 c 1
 67 0 l 1
 67 3 187 191 187 191 c 1
 187 191 67 379 67 382 c 1xbc
EndSplineSet
Validated: 1
EndChar

StartChar: y
Encoding: 120 121 18
Width: 464
VWidth: 833
Flags: HW
HStem: 360 20G<70 134 323.422 394>
VStem: 70 64<309.859 380>
LayerCount: 2
Fore
SplineSet
192 0 m 1
 188 5 70 369 70 380 c 1
 134 380 l 1
 134 371 224 93 231 79 c 1
 330 380 l 1
 394 380 l 1
 394 369 224 -144 216 -167 c 0
 142 -167 l 1
 146 -153 190 -11 192 0 c 1
EndSplineSet
Validated: 1
EndChar

StartChar: u
Encoding: 116 117 19
Width: 464
VWidth: 833
Flags: HW
HStem: 0 21G<77 131 330 384> 0 21G<77 131 330 384> 326 54<155.562 314.049>
VStem: 77 54<0 302.31 354 383> 330 54<0 306.551>
LayerCount: 2
Fore
SplineSet
385 0 m 5xb8
 331 0 l 5
 331 29 l 5
 299 12 262 3 229 3 c 7
 162 3 79 33 79 104 c 6
 79 383 l 5
 133 383 l 5
 133 104 l 6
 133 69 200 57 229 57 c 7
 277 57 331 87 331 104 c 6
 331 383 l 5
 385 383 l 5
 385 0 l 5xb8
EndSplineSet
Validated: 1
EndChar

StartChar: l
Encoding: 107 108 20
Width: 464
VWidth: 833
Flags: HW
HStem: 0 50<267.209 340.138> 619 55<115.226 212.384>
VStem: 213 54<50.0044 618.272>
LayerCount: 2
Fore
SplineSet
270 0 m 4
 251 0 213 9 213 49 c 7
 213 267 213 609 213 609 c 6
 213 622 203 619 194 619 c 4
 176 619 79 586 79 586 c 5
 65 636 l 5
 129 657 177 674 210 674 c 4
 248 674 267 658 267 612 c 4
 267 419 267 109 267 61 c 4
 267 56 272 50 284 50 c 4
 295 50 319 65 381 87 c 5
 399 35 l 5
 303 0 302 0 270 0 c 4
EndSplineSet
Validated: 1
EndChar

StartChar: r
Encoding: 113 114 21
Width: 464
VWidth: 833
Flags: HW
HStem: 1 21G<78 132> 1 21G<78 132> 326 54<195.268 310.754>
VStem: 78 54<1 252.397 316 380> 334 52<271 302.922>
LayerCount: 2
Fore
SplineSet
78 380 m 1xb8
 132 380 l 1
 132 316 l 1
 168 360 203 380 244 380 c 3
 315 380 386 319 386 271 c 0
 334 271 l 3
 334 294 292 326 245 326 c 3
 193 326 132 247 132 179 c 1
 132 1 l 1
 78 1 l 1
 78 380 l 1xb8
EndSplineSet
Validated: 1
EndChar

StartChar: m
Encoding: 108 109 22
Width: 464
VWidth: 833
Flags: HW
LayerCount: 2
Fore
SplineSet
331 388 m 4
 395 388 454 323 454 291 c 4
 454 284 454 0 454 0 c 5
 400 0 l 5
 400 0 400 279 400 286 c 5
 379 311 351 326 329 326 c 4
 295 326 268 298 257 286 c 5
 257 279 257 0 257 0 c 5
 203 0 l 5
 203 0 203 278 203 285 c 4
 199 298 169 326 140 326 c 4
 103 326 78 298 66 286 c 5
 66 279 66 0 66 0 c 5
 10 0 l 5
 10 0 10 381 10 388 c 5
 60 388 l 5
 60 381 60 361 60 361 c 5
 73 371 108 388 142 388 c 4
 197 388 231 342 231 342 c 4
 232 342 270 388 331 388 c 4
EndSplineSet
Validated: 1
EndChar

StartChar: t
Encoding: 115 116 23
Width: 464
VWidth: 833
Flags: HW
HStem: 0 57<262.605 388> 322 63<76 197 259 384>
VStem: 197 62<62.8471 322 385 649>
LayerCount: 2
Fore
SplineSet
197 115 m 7
 197 195 197 322 197 322 c 5
 76 322 l 5
 76 385 l 5
 197 385 l 5
 197 649 l 5
 259 649 l 5
 259 385 l 5
 384 385 l 5
 384 322 l 5
 259 322 l 5
 259 118 l 7
 259 72 268 57 304 57 c 7
 328 57 369 57 388 57 c 4
 388 0 l 5
 268 0 l 7
 209 0 197 20 197 115 c 7
EndSplineSet
Validated: 1
EndChar

StartChar: f
Encoding: 101 102 24
Width: 464
VWidth: 833
Flags: HW
HStem: 309 65<67 149 211 294> 591 64<226.935 312.484>
VStem: 149 62<3 309 374 576.329> 333 64<476 571.657>
LayerCount: 2
Fore
SplineSet
397 476 m 5
 333 476 l 5
 333 477 l 6
 333 526 330 591 265 591 c 4
 211 591 211 521 211 473 c 6
 211 374 l 5
 294 374 l 5
 294 309 l 5
 211 309 l 5
 211 1 l 5
 149 1 l 5
 149 309 l 5
 67 309 l 5
 67 374 l 5
 149 374 l 5
 149 468 l 6
 149 563 185 655 265 655 c 4
 357 655 397 573 397 476 c 5
EndSplineSet
Validated: 1
EndChar

StartChar: k
Encoding: 106 107 25
Width: 464
VWidth: 833
Flags: HW
VStem: 68 64<20 145.916 146 171.154 218 666.538> 318 61<20 65.3335>
LayerCount: 2
Fore
SplineSet
78 650 m 5
 132 650 l 5
 132 204 l 5
 313 389 l 5
 353 351 l 5
 245 241 l 5
 386 0 l 5
 323 0 l 6
 206 200 l 5
 132 126 l 5
 132 0 l 5
 78 0 l 5
 78 650 l 5
EndSplineSet
Validated: 1
EndChar

StartChar: z
Encoding: 121 122 26
Width: 464
VWidth: 833
Flags: HW
LayerCount: 2
Fore
SplineSet
388 305 m 5
 160 57 l 5
 388 57 l 5
 388 0 l 5
 76 0 l 5
 76 63 l 5
 320 311 l 5
 76 311 l 5
 76 365 l 5
 388 365 l 5
 388 305 l 5
EndSplineSet
Validated: 1
EndChar

StartChar: H
Encoding: 71 72 27
Width: 464
VWidth: 833
Flags: HW
LayerCount: 2
Fore
SplineSet
140 368 m 5
 324 368 l 5
 324 656 l 1
 390 656 l 1
 390 3 l 1
 324 3 l 1
 324 323 l 5
 140 323 l 5
 140 3 l 1
 74 3 l 1
 74 656 l 1
 140 656 l 1
 140 368 l 5
EndSplineSet
Validated: 1
EndChar

StartChar: O
Encoding: 78 79 28
Width: 464
VWidth: 833
Flags: W
HStem: 1 77<181.298 283.29> 589 69<190.591 283.274>
VStem: 74 65<150.065 508.02> 326 64<140.659 519.062>
LayerCount: 2
Fore
SplineSet
390 329 m 4
 390 120 332 1 231 1 c 4
 135 1 74 130 74 329 c 4
 74 531 138 658 241 658 c 4
 335 658 390 535 390 329 c 4
139 329 m 6
 139 152 165 78 229 78 c 4
 301 78 326 143 326 329 c 4
 326 516 301 589 238 589 c 4
 171 589 139 504 139 329 c 6
EndSplineSet
Validated: 1
EndChar

StartChar: A
Encoding: 64 65 29
Width: 464
VWidth: 833
Flags: HW
HStem: 0 21G<72 134.5 332 392> 168 50<178 283> 642 20G<197.103 255.26>
VStem: 72 320
LayerCount: 2
Fore
SplineSet
201 662 m 5
 251 662 l 5
 392 0 l 5
 332 0 l 6
 332 0 315 66 294 168 c 5
 169 168 l 5
 150 65 135 0 134 0 c 6
 72 0 l 5
 201 662 l 5
283 217 m 5
 264 307 243 437 227 514 c 5
 213 437 195 308 178 218 c 5
 283 217 l 5
EndSplineSet
Validated: 1
EndChar

StartChar: E
Encoding: 68 69 30
Width: 464
VWidth: 833
Flags: HW
VStem: 78 311
LayerCount: 2
Fore
SplineSet
143 592 m 5
 143 354 l 5
 375 354 l 5
 375 299 l 5
 143 299 l 5
 143 57 l 5
 387 57 l 5
 387 1 l 5
 77 1 l 5
 77 658 l 5
 387 658 l 5
 387 592 l 5
 143 592 l 5
EndSplineSet
Validated: 1
EndChar

StartChar: S
Encoding: 82 83 31
Width: 464
VWidth: 833
Flags: HW
HStem: 1 77<197.776 296.594> 597 61<175.364 270.098>
VStem: 76 73<447.468 569.576> 84 80<116.998 179> 309 70<499 550.807> 319 69<99.6968 224.185>
LayerCount: 2
Fore
SplineSet
76 504 m 0xe4
 76 591 136 658 215 658 c 0
 294 658 355 599 379 499 c 1
 309 499 l 1
 293 563 262 597 218 597 c 0
 181 597 149 554 149 505 c 0xe8
 149 384 388 352 388 170 c 0
 388 75 324 1 241 1 c 0
 161 1 102 68 84 179 c 1
 164 179 l 1xd4
 174 114 204 78 247 78 c 0
 289 78 319 112 319 160 c 0
 319 295 76 354 76 504 c 0xe4
EndSplineSet
Validated: 1
EndChar

StartChar: I
Encoding: 72 73 32
Width: 464
VWidth: 833
Flags: W
HStem: 1 76<77 201 266 388> 592 66<76 201 266 387>
VStem: 201 65<77 590>
LayerCount: 2
Fore
SplineSet
387 592 m 1
 266 592 l 1
 266 77 l 1
 388 77 l 1
 388 1 l 1
 77 1 l 1
 77 77 l 1
 201 77 l 5
 201 590 l 5
 76 592 l 1
 76 658 l 1
 387 658 l 1
 387 592 l 1
EndSplineSet
Validated: 1
EndChar

StartChar: N
Encoding: 77 78 33
Width: 464
VWidth: 833
Flags: HW
HStem: 0 21G<74 140 319.398 390> 0 21G<74 140 319.398 390>
VStem: 74 66<0 492> 327 63<159 656>
LayerCount: 2
Fore
SplineSet
140 658 m 1xb0
 327 159 l 1
 327 658 l 1
 390 658 l 1
 390 0 l 1
 327 0 l 1
 140 492 l 1
 140 0 l 1
 74 0 l 1
 74 658 l 1
 140 658 l 1xb0
EndSplineSet
Validated: 1
EndChar

StartChar: L
Encoding: 75 76 34
Width: 464
VWidth: 833
Flags: HW
HStem: 0 64<142 388> 637 20G<76 142>
VStem: 76 66<64 656>
LayerCount: 2
Fore
SplineSet
388 65 m 1
 388 0 l 1
 76 0 l 1
 76 658 l 1
 142 658 l 1
 142 64 l 1
 388 65 l 1
EndSplineSet
Validated: 1
EndChar

StartChar: Z
Encoding: 89 90 35
Width: 464
VWidth: 833
Flags: HW
HStem: 0 67<144 388> 592 65<76 320>
VStem: 76 312<0 67 592 657>
LayerCount: 2
Fore
SplineSet
76 75 m 1
 320 592 l 1
 76 592 l 1
 76 658 l 1
 388 658 l 1
 388 584 l 1
 144 67 l 1
 388 67 l 1
 388 0 l 1
 76 0 l 1
 76 75 l 1
EndSplineSet
Validated: 1
EndChar

StartChar: V
Encoding: 85 86 36
Width: 464
VWidth: 833
Flags: HW
HStem: 0 21G<196.225 263.896> 0 21G<196.225 263.896> 637 20G<76 146.069 317.79 388>
VStem: 76 67<619.911 657> 321 67<621.07 657>
LayerCount: 2
Fore
SplineSet
143 658 m 1xb8
 230 90 l 1
 321 658 l 1
 388 658 l 1
 260 0 l 1
 200 0 l 1
 76 658 l 1
 143 658 l 1xb8
EndSplineSet
Validated: 1
EndChar

StartChar: P
Encoding: 79 80 37
Width: 464
VWidth: 833
Flags: HW
HStem: 1 21G<74 140> 1 21G<74 140> 303 64<142 275.966> 592 63<142 277.447>
VStem: 74 66<1 303 367 592> 326 64<415.935 544.461>
LayerCount: 2
Fore
SplineSet
142 365 m 5x3c
 222 365 l 6
 275 365 326 404 326 482 c 7
 326 553 275 592 222 592 c 6
 142 592 l 5
 142 365 l 5x3c
140 303 m 5
 140 1 l 5
 74 1 l 5xbc
 74 655 l 5
 222 655 l 6
 309 655 390 572 390 482 c 7
 390 383 315 303 222 303 c 6
 140 303 l 5
EndSplineSet
Validated: 1
EndChar

StartChar: T
Encoding: 83 84 38
Width: 464
VWidth: 833
Flags: HW
HStem: 0 21G<200 270> 0 21G<200 270> 591 63<76 200 270 388>
VStem: 200 70<0 591>
LayerCount: 2
Fore
SplineSet
388 591 m 1xb0
 270 591 l 1
 270 0 l 1
 200 0 l 1
 200 591 l 1
 76 591 l 1
 76 654 l 1
 388 654 l 1
 388 591 l 1xb0
EndSplineSet
Validated: 1
EndChar

StartChar: M
Encoding: 76 77 39
Width: 464
VWidth: 833
Flags: HW
LayerCount: 2
Fore
SplineSet
393 657 m 5
 393 -1 l 5
 330 -1 l 5
 330 435 l 5
 232 189 l 5
 138 435 l 5
 138 -1 l 5
 71 -1 l 5
 71 657 l 5
 138 657 l 5
 232 349 l 5
 330 657 l 5
 393 657 l 5
EndSplineSet
Validated: 1
EndChar

StartChar: F
Encoding: 69 70 40
Width: 464
VWidth: 833
Flags: HW
LayerCount: 2
Fore
SplineSet
142 2 m 5
 76 2 l 5
 76 656 l 5
 388 657 l 5
 388 598 l 5
 142 597 l 5
 142 356 l 5
 282 356 l 5
 280 301 l 5
 142 301 l 5
 142 2 l 5
EndSplineSet
Validated: 1
EndChar

StartChar: X
Encoding: 87 88 41
Width: 464
VWidth: 833
Flags: HW
HStem: 0 21G<35 113.118 350.294 429> 0 21G<35 113.118 350.294 429> 637 20G<38 112.191 353.074 426>
LayerCount: 2
Fore
SplineSet
38 658 m 5xa0
 103 658 l 5
 228 385 l 5
 363 658 l 5
 426 658 l 5
 258 334 l 5
 429 0 l 5
 360 0 l 5
 228 272 l 5
 104 0 l 5
 35 0 l 5
 199 334 l 5
 38 658 l 5xa0
EndSplineSet
Validated: 1
EndChar

StartChar: Y
Encoding: 88 89 42
Width: 464
VWidth: 833
Flags: HW
HStem: 0 21G<198 261> 0 21G<198 261> 637 20G<40 110.236 354.109 424>
VStem: 198 63<0 336>
LayerCount: 2
Fore
SplineSet
40 658 m 1xb0
 101 658 l 1
 228 382 l 1
 364 658 l 1
 424 658 l 1
 261 336 l 1
 261 0 l 1
 198 0 l 1
 198 336 l 1
 40 658 l 1xb0
EndSplineSet
Validated: 1
EndChar

StartChar: Q
Encoding: 80 81 43
Width: 464
VWidth: 833
Flags: HW
LayerCount: 2
Fore
SplineSet
240 658 m 0
 334 658 390 537 390 332 c 0
 390 211 384 177 346 82 c 1
 389 0 l 1
 325 0 l 1
 307 29 l 1
 279 9 257 0 232 0 c 0
 136 0 74 130 74 332 c 0
 74 534 137 658 240 658 c 0
232 78 m 0
 247 78 254 80 272 89 c 1
 198 222 l 1
 258 223 l 1
 306 136 l 1
 323 194 326 224 326 332 c 0
 326 519 302 588 238 588 c 0
 171 588 138 503 138 332 c 0
 138 151 165 78 230 78 c 0
 231 78 231 78 232 78 c 0
EndSplineSet
Validated: 1
EndChar

StartChar: U
Encoding: 84 85 44
Width: 464
VWidth: 833
Flags: HW
HStem: 1 77<175.99 287.912> 638 19G<72 142 322 392>
VStem: 72 66<130.915 657> 328 64<131.796 658>
LayerCount: 2
Fore
SplineSet
328 342 m 0
 328 429 322 574 322 658 c 1
 392 658 l 1
 392 281 l 2
 392 77 348 1 230 1 c 0
 114 1 72 75 72 281 c 2
 72 658 l 1
 142 658 l 1
 142 534 138 415 138 342 c 0
 138 134 158 78 232 78 c 0
 306 78 328 138 328 342 c 0
EndSplineSet
Validated: 1
EndChar

StartChar: R
Encoding: 81 82 45
Width: 464
VWidth: 833
Flags: HW
HStem: 0 21G<59 119 331.871 405> 0 21G<59 119 331.871 405> 303 62<121 231> 592 63<121 267.844>
VStem: 59 60<0 303 365 592> 311 64<409.613 548.622>
LayerCount: 2
Fore
SplineSet
121 365 m 1x3c
 204 365 l 3
 267 365 311 414 311 485 c 3
 311 544 263 592 204 592 c 27
 174 592 121 592 121 592 c 1
 121 365 l 1x3c
283 322 m 1
 405 0 l 1
 339 0 l 1
 231 303 l 1
 204 303 l 0
 119 303 l 1
 119 0 l 1
 59 0 l 1xbc
 59 655 l 1
 204 655 l 3
 292 655 375 572 375 485 c 3
 375 415 339 351 283 322 c 1
EndSplineSet
Validated: 1
EndChar

StartChar: D
Encoding: 67 68 46
Width: 464
VWidth: 833
Flags: HW
HStem: 1 60<137 241.802> 592 60<137 243.891>
VStem: 77 60<61 592> 327 60<183.419 478.189>
LayerCount: 2
Fore
SplineSet
137 61 m 1
 184 61 l 2
 276 61 327 187 327 338 c 0
 327 477 273 592 184 592 c 2
 137 592 l 1
 137 61 l 1
184 1 m 2
 77 1 l 1
 77 652 l 1
 118 652 118 652 133 652 c 0
 134 652 182 652 184 652 c 0
 297 652 387 534 387 338 c 0
 387 212 357 109 298 50 c 0
 267 19 228 1 184 1 c 2
EndSplineSet
Validated: 1
EndChar

StartChar: K
Encoding: 74 75 47
Width: 464
VWidth: 833
Flags: HW
HStem: 0 21G<75 142 293.818 387> 0 21G<75 142 293.818 387> 637 20G<75 142 295.566 389>
VStem: 75 67<0 220 438 657>
LayerCount: 2
Fore
SplineSet
75 658 m 1xb0
 142 658 l 1
 142 438 l 1
 311 658 l 1
 389 658 l 1
 149 330 l 1
 387 0 l 1
 309 0 l 1
 142 220 l 1
 142 0 l 1
 75 0 l 1
 75 658 l 1xb0
EndSplineSet
Validated: 1
EndChar

StartChar: B
Encoding: 65 66 48
Width: 464
VWidth: 833
Flags: HW
HStem: 0 50<144 283.644> 287 74<144 265.491> 604 57<144 260.921>
VStem: 84 60<50 287 361 604> 290 64<384.069 574.528> 328 63<91.636 241.349>
LayerCount: 2
Fore
SplineSet
78 661 m 5xf4
 200 661 l 3
 294 661 349 595 349 480 c 3xf8
 349 393 345 373 316 328 c 1
 355 304 386 235 386 174 c 3
 386 44 303 0 205 0 c 27
 156 0 78 0 78 0 c 5
 78 661 l 5xf4
138 604 m 5
 138 361 l 5
 209 361 l 3
 262 361 285 396 285 480 c 3
 285 566 259 604 200 604 c 27
 176 604 138 604 138 604 c 5
138 287 m 5
 138 50 l 5
 205 50 l 3
 281 50 323 91 323 174 c 3xf4
 323 238 275 287 211 287 c 27
 183 287 138 287 138 287 c 5
EndSplineSet
Validated: 1
EndChar

StartChar: C
Encoding: 66 67 49
Width: 464
VWidth: 833
Flags: HW
HStem: 6 60<185.14 293.861> 594 57<190.197 295.295>
VStem: 73 50<157.56 497.438> 329 62<100.952 180 495 557.77>
LayerCount: 2
Fore
SplineSet
267 6 m 6
 217 6 l 6
 113 6 73 96 73 328 c 6
 73 385 l 6
 73 553 127 651 219 651 c 6
 269 651 l 6
 325 651 385 570 385 495 c 5
 323 495 l 5
 323 555 291 594 242 594 c 4
 170 594 123 505 123 351 c 4
 123 152 161 66 240 66 c 4
 294 66 329 111 329 180 c 5
 391 180 l 5
 391 74 342 6 267 6 c 6
EndSplineSet
Validated: 1
EndChar

StartChar: G
Encoding: 70 71 50
Width: 464
VWidth: 833
Flags: HW
HStem: 2 60<177.197 281.714> 237 60<266 327> 588 60<177.758 298.24>
VStem: 72 60<120.112 524.595> 266 122<238.387 297> 320 60<478 566.165> 327 61<117.528 237>
LayerCount: 2
Fore
SplineSet
74 334 m 0xf8
 74 440 75 648 226 648 c 0
 335 648 382 597 382 478 c 1
 322 478 l 1xf4
 322 558 304 588 226 588 c 0
 146 588 134 470 134 334 c 0
 134 163 144 62 232 62 c 0
 314 62 329 177 329 237 c 1xf2
 268 237 l 1
 268 297 l 1
 390 297 l 1
 390 267 l 2
 390 207 387 2 232 2 c 0
 79 2 74 184 74 308 c 0
 74 317 74 326 74 334 c 0xf8
EndSplineSet
Validated: 1
EndChar

StartChar: J
Encoding: 73 74 51
Width: 464
VWidth: 833
Flags: HW
HStem: 1 73<166.82 294.144> 638 20G<332 391>
VStem: 73 62<109.422 200> 332 59<119.698 658>
LayerCount: 2
Fore
SplineSet
135 200 m 3
 135 117 159 74 233 74 c 0
 325 74 332 146 332 342 c 0
 332 429 332 574 332 658 c 1
 391 658 l 1
 391 281 l 2
 391 75 349 1 231 1 c 0
 131 1 73 59 73 200 c 0
 135 200 l 3
EndSplineSet
Validated: 1
EndChar

StartChar: W
Encoding: 86 87 52
Width: 464
VWidth: 833
Flags: HW
HStem: 0 21G<101.933 170.788 279.676 356.249> 0 21G<101.933 170.788 279.676 356.249> 638 20G<36 106.988 362.231 428>
VStem: 104 62<0 29.2419> 284 70<0 32.375> 365 63<607.433 658>
LayerCount: 2
Fore
SplineSet
104 658 m 5xbc
 153 175 l 5
 230 484 l 5
 298 174 l 5
 365 658 l 5
 428 658 l 5
 354 0 l 5
 284 0 l 5
 228 259 l 5
 166 0 l 5
 104 0 l 5
 36 658 l 5
 104 658 l 5xbc
EndSplineSet
Validated: 1
EndChar

StartChar: parenleft
Encoding: 39 40 53
Width: 464
VWidth: 833
Flags: HW
HStem: -25 53<263.488 346> 623 66<255.883 346>
VStem: 118 58<152.945 509.56>
LayerCount: 2
Fore
SplineSet
176 332 m 0
 176 210 196 136 224 92 c 0
 259 36 306 28 334 28 c 2
 346 28 l 1
 346 -25 l 1
 296 -25 l 2
 261 -25 211 -12 172 52 c 0
 141 104 118 190 118 332 c 0
 118 682 263 689 296 689 c 2
 346 689 l 1
 346 623 l 1
 334 623 l 2
 270 623 176 604 176 332 c 0
EndSplineSet
Validated: 1
EndChar

StartChar: parenright
Encoding: 40 41 54
Width: 464
VWidth: 833
Flags: HW
HStem: -25 53<118 198.466> 623 66<118 206.75>
VStem: 288 58<153.259 508.156>
LayerCount: 2
Fore
SplineSet
288 332 m 0
 288 604 192 623 128 623 c 2
 118 623 l 1
 118 689 l 1
 166 689 l 2
 201 689 251 677 290 612 c 0
 321 560 346 473 346 332 c 0
 346 62 259 -25 166 -25 c 2
 118 -25 l 1
 118 28 l 1
 128 28 l 2
 278 28 288 243 288 332 c 0
EndSplineSet
Validated: 1
EndChar

StartChar: bracketleft
Encoding: 90 91 55
Width: 464
VWidth: 833
Flags: HW
HStem: -69 62<189.5 346> 679 66<195.312 346>
VStem: 118 52<117.529 549.424>
LayerCount: 2
Fore
SplineSet
226 675 m 0
 174 675 170 595 170 332 c 0
 170 298 170 267 170 240 c 0
 170 170 170 119 174 83 c 0
 179 21 193 -8 226 -8 c 0
 293 -8 306 -7 334 -7 c 2
 346 -7 l 1
 346 -69 l 1
 296 -69 l 2
 280 -69 269 -69 254 -70 c 0
 233 -71 206 -72 160 -72 c 0
 155 -72 152 -71 148 -65 c 0
 122 -32 118 110 118 332 c 2
 118 365 l 2
 118 480 118 561 120 618 c 0
 124 737 137 742 160 742 c 2
 296 745 l 1
 346 745 l 1
 346 679 l 1
 334 679 l 2
 333 679 233 675 226 675 c 0
EndSplineSet
Validated: 1
EndChar

StartChar: bracketright
Encoding: 92 93 56
Width: 464
VWidth: 833
Flags: HW
LayerCount: 2
Fore
SplineSet
238 -8 m 0
 271 -8 283 21 288 83 c 0
 293 134 294 213 294 332 c 0
 294 595 290 675 238 675 c 0
 231 675 129 679 128 679 c 2
 118 679 l 1
 118 745 l 1
 166 745 l 1
 166 745 166 745 302 742 c 0
 310 742 316 741 320 739 c 0
 346 724 346 629 346 365 c 2
 346 332 l 2
 346 110 342 -32 316 -65 c 0
 312 -71 307 -72 302 -72 c 0
 256 -72 231 -71 210 -70 c 0
 195 -69 182 -69 166 -69 c 2
 118 -69 l 1
 118 -7 l 1
 128 -7 l 2
 129 -7 198 -8 238 -8 c 0
EndSplineSet
Validated: 1
EndChar

StartChar: backslash
Encoding: 91 92 57
Width: 464
VWidth: 833
Flags: HW
LayerCount: 2
Fore
SplineSet
149 658 m 1
 391 11 l 1
 313 11 l 1
 73 658 l 1
 149 658 l 1
EndSplineSet
Validated: 1
EndChar

StartChar: bar
Encoding: 123 124 58
Width: 464
VWidth: 833
Flags: HW
VStem: 204 56<-76 742>
LayerCount: 2
Fore
SplineSet
260 747 m 5
 260 -71 l 5
 204 -71 l 5
 204 747 l 5
 260 747 l 5
EndSplineSet
Validated: 1
Substitution2: "end_double_arrows-1" double_bar_end
Substitution2: "start_double_arrows-1" double_bar_start
Substitution2: "end_arrows_1" bar_right
Substitution2: "mid_arrows-1" bar_mid
Substitution2: "start_arrows-1" bar_left
EndChar

StartChar: slash
Encoding: 46 47 59
Width: 464
VWidth: 833
Flags: W
HStem: 643 20G<304.511 398>
VStem: 66 332
LayerCount: 2
Fore
SplineSet
66 6 m 1
 312 663 l 1
 398 663 l 1
 156 6 l 1
 66 6 l 1
EndSplineSet
Validated: 1
EndChar

StartChar: exclam
Encoding: 32 33 60
Width: 464
VWidth: 833
Flags: W
HStem: 9 139<185 280.25> 638 20G<196 272>
VStem: 163 138<31.5947 124.882> 196 76<236 658>
LayerCount: 2
Fore
SplineSet
163 78 m 0xe0
 163 113 198 148 234 148 c 0
 268 148 301 114 301 79 c 0
 301 43 268 9 234 9 c 0
 198 9 163 43 163 78 c 0xe0
272 658 m 1xd0
 272 236 l 1
 196 236 l 1
 196 658 l 1
 272 658 l 1xd0
EndSplineSet
Validated: 1
EndChar

StartChar: one
Encoding: 48 49 61
AltUni2: 0000b9.ffffffff.0
Width: 464
VWidth: 833
Flags: HW
HStem: 0 57<76 200 270 388> 642 20G<155.455 270>
VStem: 200 70<57 586>
LayerCount: 2
Fore
SplineSet
200 586 m 5
 76 517 l 5
 76 596 l 5
 190 662 l 5
 270 662 l 5
 270 57 l 5
 388 57 l 5
 388 0 l 5
 76 0 l 5
 76 57 l 5
 200 57 l 5
 200 586 l 5
EndSplineSet
Validated: 1
EndChar

StartChar: two
Encoding: 49 50 62
AltUni2: 0000b2.ffffffff.0
Width: 464
VWidth: 833
Flags: HW
HStem: 1 60<179 393> 601 60<180.161 283.809>
VStem: 328 60<369.153 550.192>
LayerCount: 2
Fore
SplineSet
111 31 m 2
 111 150 328 287 328 464 c 0
 328 538 286 601 237 601 c 0
 205 601 194 595 145 548 c 0
 133 536 122 521 111 510 c 1
 87 536 71 554 71 554 c 0
 84 568 117 605 117 605 c 0
 157 645 191 661 237 661 c 0
 321 661 388 574 388 464 c 0
 388 289 218 154 179 61 c 1
 393 61 l 1
 393 1 l 1
 111 1 l 1
 111 31 l 2
EndSplineSet
Validated: 1
EndChar

StartChar: three
Encoding: 50 51 63
AltUni2: 0000b3.ffffffff.0
Width: 464
VWidth: 833
Flags: HW
HStem: -2 60<177.26 287.649> 597 60<174.833 285.669>
VStem: 81 60<95.4527 138 537 564.334> 262 60<261.932 385.172> 323 60<93.7914 214.068 433.828 558.175>
LayerCount: 2
Fore
SplineSet
323 495 m 0
 323 549 283 597 228 597 c 0
 187 597 148 556 146 537 c 1
 86 537 l 1
 86 588 157 658 228 658 c 0
 315 658 383 583 383 495 c 0
 383 413 323 384 323 324 c 0
 323 263 383 233 383 151 c 0
 383 66 313 -2 227 -2 c 0
 146 -2 81 82 81 138 c 1
 141 138 l 1
 141 115 181 58 227 58 c 0
 279 58 323 98 323 151 c 0
 323 212 262 241 262 324 c 0
 262 406 323 435 323 495 c 0
EndSplineSet
Validated: 1
EndChar

StartChar: four
Encoding: 51 52 64
Width: 464
VWidth: 833
Flags: HW
HStem: 0 21G<239 299> 0 21G<239 299> 210 60<150 239 299 386>
VStem: 239 60<0 210 270 502>
LayerCount: 2
Fore
SplineSet
239 270 m 5x30
 239 502 l 5
 150 270 l 5
 239 270 l 5x30
239 210 m 5
 106 210 l 5
 78 251 l 5
 239 668 l 5
 299 668 l 5
 299 270 l 5
 386 270 l 5
 386 210 l 5
 299 210 l 5
 299 0 l 5
 239 0 l 5xb0
 239 210 l 5
EndSplineSet
Validated: 1
EndChar

StartChar: five
Encoding: 52 53 65
Width: 464
VWidth: 833
Flags: HW
HStem: 0 60<168.871 275.329> 340 60<176.329 278.703> 588 60<176 351>
VStem: 118 58<399 588> 324 60<116.443 290.915>
LayerCount: 2
Fore
SplineSet
118 340 m 1
 118 648 l 1
 351 648 l 1
 351 588 l 1
 176 588 l 1
 176 399 l 1
 183 400 191 400 200 400 c 0
 264 400 384 377 384 199 c 0
 384 97 317 0 220 0 c 3
 154 0 107 54 80 90 c 1
 128 126 l 0
 156 89 186 60 220 60 c 3
 286 60 324 137 324 199 c 0
 324 298 282 340 201 340 c 0
 170 340 128 340 118 340 c 1
EndSplineSet
Validated: 1
EndChar

StartChar: seven
Encoding: 54 55 66
Width: 464
VWidth: 833
Flags: HW
HStem: 0 21G<105 176.172> 582 65<99 319>
VStem: 99 302<627.478 647>
LayerCount: 2
Fore
SplineSet
73 580 m 5
 73 645 l 1
 391 645 l 1
 160 0 l 1
 92 0 l 2
 306 580 l 5
 73 580 l 5
EndSplineSet
Validated: 1
EndChar

StartChar: eight
Encoding: 55 56 67
Width: 464
VWidth: 833
Flags: HW
HStem: 1 60<172.97 287.319> 317 99<178.546 273.945> 585 60<183.722 270.548>
VStem: 76 60<103.74 268.294> 101 60<431.682 562.824> 292 60<432.438 564.7> 328 60<103.596 271.628>
LayerCount: 2
Fore
SplineSet
281 368 m 5xec
 341 348 388 283 388 188 c 4
 388 90 319 1 225 1 c 4
 139 1 76 99 76 188 c 4xf2
 76 267 112 338 172 365 c 5
 136 380 101 418 101 504 c 4
 101 577 154 645 225 645 c 4
 298 645 352 581 352 504 c 4
 352 488 349 396 281 368 c 5xec
225 416 m 4
 263 416 292 437 292 504 c 4
 292 543 268 585 225 585 c 4
 187 585 161 541 161 504 c 4xec
 161 481 161 416 225 416 c 4
225 61 m 4
 304 61 328 128 328 188 c 4
 328 211 323 317 225 317 c 4
 171 317 136 242 136 188 c 4xf2
 136 135 160 61 225 61 c 4
EndSplineSet
Validated: 1
EndChar

StartChar: zero
Encoding: 47 48 68
Width: 464
VWidth: 833
Flags: HW
HStem: 0 57<183.498 285.297> 595 67<186.594 284.829>
VStem: 74 64<224.618 520.72> 326 64<135.4 452.417>
LayerCount: 2
Fore
SplineSet
390 335 m 0
 390 122 344 0 232 0 c 0
 131 0 74 121 74 335 c 0
 74 537 127 662 232 662 c 0
 335 662 390 548 390 335 c 0
306 529 m 3
 306 549 286 595 234 595 c 0
 233 595 233 595 232 595 c 0
 167 593 138 512 138 335 c 0
 138 293 138 302 142 223 c 1
 306 529 l 3
324 454 m 1
 157 132 l 3
 157 116 178 57 232 57 c 0
 306 57 326 116 326 335 c 0
 326 417 326 421 324 454 c 1
EndSplineSet
Validated: 1
EndChar

StartChar: nine
Encoding: 56 57 69
Width: 464
VWidth: 833
Flags: HW
HStem: 1 21G<152.789 268> 1 21G<152.789 268> 284 60<177.564 279.699> 583 60<177.776 281.771>
VStem: 80 60<386.698 542.722> 324 60<393.025 536.607>
LayerCount: 2
Fore
SplineSet
227 643 m 0xbc
 317 643 384 558 384 466 c 0
 384 366 359 215 177 1 c 1
 131 39 l 1
 210 131 264 220 294 302 c 1
 274 291 252 284 227 284 c 0
 139 284 80 372 80 466 c 0
 80 547 133 643 227 643 c 0xbc
227 344 m 0
 284 344 324 410 324 466 c 0
 324 522 285 583 227 583 c 0
 168 583 140 514 140 466 c 0
 140 413 170 344 227 344 c 0
EndSplineSet
Validated: 1
EndChar

StartChar: six
Encoding: 53 54 70
Width: 464
VWidth: 833
Flags: HW
HStem: 2 60<183.743 291.183> 311 60<173.638 295.52>
VStem: 67 60<123.448 263.174> 337 60<112.859 264.837>
LayerCount: 2
Fore
SplineSet
238 2 m 4
 145 2 67 100 67 193 c 4
 67 251 75 277 94 329 c 4
 142 457 186 529 294 650 c 5
 337 610 l 5
 246 508 208 450 169 357 c 5
 190 366 213 371 238 371 c 4
 324 371 397 279 397 193 c 4
 397 94 332 2 238 2 c 4
238 311 m 4
 173 311 127 257 127 193 c 4
 127 134 179 62 238 62 c 4
 301 62 337 134 337 193 c 4
 337 245 302 311 238 311 c 4
EndSplineSet
Validated: 1
EndChar

StartChar: numbersign
Encoding: 34 35 71
Width: 464
VWidth: 833
Flags: HW
HStem: 1 20G<98 157.073 284 344.971> 206 58<-8 104 172 293 356 471> 454 58<-8 117 188 304 365 471>
VStem: 98 58<1 131.455> 104 63<75.5455 206> 284 60<1 144.2> 304 58<266 453>
LayerCount: 2
Fore
SplineSet
472 265 m 1xea
 472 190 l 1
 389 190 l 1
 389 0 l 1
 317 1 l 1
 317 190 l 1
 150 190 l 1xec
 150 1 l 1
 77 1 l 1xf0
 77 190 l 1
 -8 190 l 1
 -8 265 l 1
 77 265 l 1
 77 438 l 1
 -8 438 l 1
 -8 512 l 1
 77 512 l 1
 77 668 l 1
 150 668 l 1
 150 512 l 1
 317 512 l 1
 317 668 l 1
 389 668 l 1
 389 513 l 1
 472 513 l 1
 472 438 l 1
 389 438 l 1
 389 265 l 1
 472 265 l 1xea
150 265 m 1
 317 265 l 1
 317 438 l 1xe2
 150 438 l 1
 150 265 l 1
EndSplineSet
Validated: 1
EndChar

StartChar: dollar
Encoding: 35 36 72
Width: 464
VWidth: 833
Flags: HW
LayerCount: 2
Fore
SplineSet
258 602 m 2
 339 585 371 506 380 476 c 1
 310 476 l 1
 305 490 292 519 266 539 c 2
 250 551 l 1
 250 373 l 1
 320 333 392 289 392 212 c 0
 392 160 362 73 260 62 c 2
 250 61 l 1
 250 10 l 1
 206 10 l 1
 206 63 l 1
 198 65 l 2
 112 86 88 176 82 208 c 1
 158 208 l 1
 161 194 168 166 188 146 c 2
 206 128 l 1
 206 323 l 1
 143 362 72 408 72 476 c 0
 72 537 129 592 198 604 c 1
 206 606 l 1
 206 657 l 1
 250 657 l 1
 250 604 l 1
 258 602 l 2
192 555 m 2
 167 547 144 526 144 492 c 0
 144 460 164 437 190 416 c 2
 206 403 l 1
 206 559 l 1
 192 555 l 2
262 124 m 2
 314 133 322 179 322 200 c 0
 322 207 322 212 322 214 c 0
 321 247 289 267 250 291 c 1
 250 122 l 1
 262 124 l 2
EndSplineSet
Validated: 1
EndChar

StartChar: percent
Encoding: 36 37 73
Width: 464
VWidth: 833
Flags: HW
HStem: 10 65<257.149 348.295> 11 21G<56.5 57.5 132 132> 181 59<257.597 346.625> 425 65<117.778 203.564> 596 59<118.058 202.764>
VStem: 58 50<499.887 586.207> 194 54<84.7694 148.11> 212 56<509.6 587.207> 332 76<606.08 658> 358 50<85.2932 170.241>
LayerCount: 2
Fore
SplineSet
58 542 m 0x7e40
 58 609 100 655 160 655 c 0
 225 655 268 606 268 537 c 0
 268 529 264 527 264 509 c 0
 268 509 332 648 332 658 c 1
 408 658 l 1x7d80
 408 648 226 209 226 209 c 1
 244 228 270 240 302 240 c 0
 366 240 408 194 408 127 c 0
 408 60 367 11 302 11 c 0xbc40
 235 11 194 64 194 132 c 0
 194 138 193 143 194 148 c 0
 194 149 l 0
 190 149 132 21 132 11 c 1
 132 16 114 18 95 18 c 0
 76 18 57 16 56 11 c 1
 59 28 236 457 236 457 c 0
 218 437 192 425 160 425 c 0
 100 425 58 475 58 542 c 0x7e40
212 542 m 0
 212 576 191 596 160 596 c 0
 128 596 108 573 108 542 c 0
 108 511 131 490 160 490 c 0
 189 490 212 508 212 542 c 0
358 127 m 0xbe40
 358 159 333 181 302 181 c 0
 271 181 248 160 248 127 c 0
 248 94 273 75 302 75 c 0
 332 75 358 94 358 127 c 0xbe40
56 11 m 1x7c
 56 11 l 1x7c
EndSplineSet
Validated: 1
EndChar

StartChar: question
Encoding: 62 63 74
Width: 464
VWidth: 833
Flags: HW
LayerCount: 2
Fore
SplineSet
158 78 m 0
 158 113 195 148 230 148 c 0
 265 148 300 114 300 79 c 0
 300 44 265 9 230 9 c 0
 194 9 158 43 158 78 c 0
322 506 m 0
 322 574 292 595 230 595 c 0
 178 595 152 552 144 536 c 1
 78 538 l 1
 86 553 102 578 124 602 c 0
 151 632 187 657 230 657 c 0
 316 657 386 607 386 506 c 0
 386 478 359 450 328 420 c 0
 298 390 262 358 262 316 c 0
 262 279 264 243 264 226 c 1
 192 226 l 1
 193 243 194 279 194 316 c 0
 194 380 322 448 322 506 c 0
EndSplineSet
Validated: 1
EndChar

StartChar: braceleft
Encoding: 122 123 75
Width: 464
VWidth: 833
Flags: HW
HStem: -30 63<285.175 351> 618 76<280.453 351>
VStem: 113 80<307.824 360.907> 191 68<59.2252 276.898 394.383 596.633>
LayerCount: 2
Fore
SplineSet
259 423 m 0xd0
 259 406 191 361 191 332 c 0xe0
 191 310 252 271 259 251 c 1
 259 49 279 33 330 33 c 2
 351 33 l 1
 351 -30 l 1
 296 -30 l 2
 237 -30 191 -21 191 251 c 0xd0
 191 272 127 305 113 331 c 1
 113 332 l 2xe0
 113 356 191 396 191 423 c 0
 191 673 239 694 296 694 c 2
 351 694 l 1
 351 618 l 1
 318 618 l 2
 277 618 259 595 259 423 c 0xd0
EndSplineSet
Validated: 1
EndChar

StartChar: braceright
Encoding: 124 125 76
Width: 464
VWidth: 833
Flags: HW
LayerCount: 2
Fore
SplineSet
269 332 m 4
 269 366 207 403 205 423 c 6
 205 423 l 5
 205 423 l 5
 200 595 187 618 146 618 c 6
 113 618 l 5
 113 694 l 5
 168 694 l 6
 225 694 262 673 271 423 c 4
 271 395 351 357 351 332 c 6
 351 331 l 5
 339 307 273 270 273 251 c 4
 270 130 259 60 245 21 c 4
 228 -24 204 -30 168 -30 c 6
 113 -30 l 5
 113 33 l 5
 132 33 l 6
 183 33 199 50 205 251 c 5
 213 274 269 310 269 332 c 4
EndSplineSet
Validated: 1
EndChar

StartChar: less
Encoding: 59 60 77
Width: 464
VWidth: 833
Flags: W
VStem: 67 330
LayerCount: 2
Fore
SplineSet
397 83 m 1
 397 5 l 1
 67 202 l 1
 397 392 l 1
 397 311 l 1
 170 202 l 1
 397 83 l 1
EndSplineSet
Validated: 1
Substitution2: "end_double_arrows-1" double_less_end
Substitution2: "start_double_arrows-1" double_less_start
Substitution2: "mid_arrows-1" less_mid
Substitution2: "end_arrows_1" less_end
Substitution2: "start_arrows-1" less_start
EndChar

StartChar: greater
Encoding: 61 62 78
Width: 464
VWidth: 833
Flags: HW
VStem: 67 330
LayerCount: 2
Fore
SplineSet
67 5 m 1
 67 83 l 1
 294 202 l 1
 67 311 l 1
 67 392 l 1
 397 202 l 1
 67 5 l 1
EndSplineSet
Validated: 1
Substitution2: "end_double_arrows-1" double_greater_end
Substitution2: "start_double_arrows-1" double_greater_start
Substitution2: "mid_arrows-1" greater_mid
Substitution2: "start_arrows-1" greater_start
Substitution2: "end_arrows_1" greater_end
EndChar

StartChar: period
Encoding: 45 46 79
Width: 464
VWidth: 833
Flags: HW
LayerCount: 2
Fore
SplineSet
157 78 m 0
 157 116 195 153 233 153 c 0
 271 153 307 117 307 79 c 0
 307 40 271 4 233 4 c 0
 194 4 157 40 157 78 c 0
EndSplineSet
Validated: 1
EndChar

StartChar: comma
Encoding: 43 44 80
Width: 464
VWidth: 833
Flags: HW
LayerCount: 2
Fore
SplineSet
166 78 m 0
 166 116 204 153 242 153 c 0
 280 153 316 117 316 79 c 0
 316 51 295 19 266 7 c 1
 264 7 l 1
 222 -93 l 1
 148 -92 l 1
 184 34 l 1
 178 42 166 58 166 78 c 0
EndSplineSet
Validated: 1
EndChar

StartChar: quotesingle
Encoding: 38 39 81
Width: 464
VWidth: 833
Flags: HW
LayerCount: 2
Fore
SplineSet
278 657 m 1
 260 428 l 1
 202 428 l 1
 186 656 l 1
 278 657 l 1
EndSplineSet
Validated: 1
EndChar

StartChar: quotedbl
Encoding: 33 34 82
Width: 464
VWidth: 833
Flags: HW
LayerCount: 2
Fore
SplineSet
369 657 m 1
 353 428 l 1
 295 428 l 1
 279 656 l 1
 369 657 l 1
187 654 m 1
 169 425 l 1
 109 425 l 1
 95 653 l 1
 187 654 l 1
EndSplineSet
Validated: 1
EndChar

StartChar: colon
Encoding: 57 58 83
Width: 464
VWidth: 833
Flags: HW
HStem: 25 138<185.779 281.125> 232 139<185.779 281.125>
VStem: 162 140<47.0713 139.707 254.732 347.161>
LayerCount: 2
Fore
SplineSet
162 301 m 0
 162 336 199 371 234 371 c 0
 269 371 302 337 302 302 c 0
 302 266 269 232 234 232 c 0
 198 232 162 266 162 301 c 0
162 93 m 0
 162 128 199 163 234 163 c 0
 269 163 302 130 302 95 c 0
 302 59 269 25 234 25 c 0
 198 25 162 58 162 93 c 0
EndSplineSet
Validated: 1
Substitution2: "raise_colon-1" ucasecolon
EndChar

StartChar: semicolon
Encoding: 58 59 84
Width: 464
VWidth: 833
Flags: HW
LayerCount: 2
Fore
SplineSet
170 92 m 0
 170 127 205 162 240 162 c 0
 275 162 310 129 310 94 c 0
 310 67 288 38 262 27 c 1
 258 26 l 1
 216 -73 l 1
 154 -72 l 1
 188 50 l 1
 181 59 170 73 170 92 c 0
170 301 m 0
 170 336 205 371 240 371 c 0
 275 371 310 337 310 302 c 0
 310 266 277 232 242 232 c 0
 206 232 170 266 170 301 c 0
EndSplineSet
Validated: 1
EndChar

StartChar: plus
Encoding: 42 43 85
Width: 464
VWidth: 833
Flags: HW
HStem: 243 79<70 194 272 394>
VStem: 194 78<77 243 322 467>
LayerCount: 2
Fore
SplineSet
194 322 m 5
 194 467 l 5
 272 467 l 5
 272 322 l 5
 394 322 l 5
 394 243 l 5
 272 243 l 5
 272 77 l 5
 194 77 l 5
 194 243 l 5
 70 243 l 5
 70 322 l 5
 194 322 l 5
EndSplineSet
Validated: 1
EndChar

StartChar: equal
Encoding: 60 61 86
Width: 464
VWidth: 833
Flags: HW
HStem: 150 84<-8 472> 335 84<-8 472>
LayerCount: 2
Fore
SplineSet
472 234 m 1
 472 150 l 1
 -8 150 l 1
 -8 234 l 1
 472 234 l 1
472 419 m 1
 472 335 l 1
 -8 335 l 1
 -8 419 l 1
 472 419 l 1
EndSplineSet
Validated: 1
Substitution2: "lengthen_dashes-1" narrow_equal
EndChar

StartChar: hyphen
Encoding: 44 45 87
Width: 464
VWidth: 833
Flags: W
HStem: 248 69<69 395>
VStem: 69 326<248 317>
LayerCount: 2
Fore
SplineSet
395 248 m 1
 69 248 l 1
 69 317 l 1
 395 317 l 1
 395 248 l 1
EndSplineSet
Validated: 1
Substitution2: "lengthen_dashes-1" long_dash
EndChar

StartChar: underscore
Encoding: 94 95 88
Width: 464
VWidth: 833
Flags: HW
LayerCount: 2
Fore
SplineSet
441 -78 m 1
 23 -78 l 1
 23 -10 l 1
 441 -10 l 1
 441 -78 l 1
EndSplineSet
Validated: 1
EndChar

StartChar: asterisk
Encoding: 41 42 89
Width: 464
VWidth: 833
Flags: HW
HStem: 351 20G<65.8889 134.564 329.5 396.667>
VStem: 194 75<333 465>
LayerCount: 2
Fore
SplineSet
369 159 m 1
 309 115 l 2
 232 217 l 1
 201 174 158 113 158 113 c 2
 96 157 l 1
 171 261 l 1
 50 299 l 1
 72 371 l 1
 194 332 l 1
 194 465 l 1
 269 465 l 1
 269 333 l 1
 390 373 l 1
 414 301 l 2
 293 262 l 1
 369 159 l 1
EndSplineSet
Validated: 1
EndChar

StartChar: asciicircum
Encoding: 93 94 90
Width: 464
VWidth: 833
Flags: HW
LayerCount: 2
Fore
SplineSet
229 649 m 1
 387 402 l 1
 321 402 l 1
 229 552 l 1
 147 402 l 1
 77 402 l 1
 229 649 l 1
EndSplineSet
Validated: 1
EndChar

StartChar: ampersand
Encoding: 37 38 91
Width: 464
VWidth: 833
Flags: HW
LayerCount: 2
Fore
SplineSet
261 511 m 0
 261 549 235 588 199 588 c 0
 163 588 131 549 131 509 c 0
 131 472 155 454 197 427 c 1
 206 433 200 429 215 441 c 0
 239 459 261 476 261 511 c 0
59 517 m 0
 59 602 116 663 199 663 c 0
 284 663 341 601 341 528 c 0
 341 452 277 397 249 373 c 1
 272 339 275 337 293 302 c 2
 293 302 307 274 315 260 c 1
 321 267 l 2
 337 289 355 333 365 359 c 1
 405 302 l 1
 400 291 397 282 389 264 c 0
 374 232 356 193 347 176 c 1
 360 126 387 61 399 5 c 1
 333 5 l 1
 327 40 320 45 305 117 c 1
 297 102 l 1
 270 37 254 5 193 5 c 0
 100 5 59 86 59 194 c 0
 59 302 103 351 133 382 c 1
 109 401 59 440 59 517 c 0
177 79 m 0
 216 79 243 144 267 203 c 1
 239 254 216 292 193 329 c 1
 149 289 123 264 123 193 c 0
 123 125 144 79 177 79 c 0
EndSplineSet
Validated: 1
EndChar

StartChar: at
Encoding: 63 64 92
Width: 464
VWidth: 833
Flags: HW
HStem: 6 60<219.525 372.725> 135 51<249.815 326.208> 470 50<246.008 327.013> 609 67<228.486 314.684>
VStem: 58 52<216.953 443.675> 176 48<214.339 448.261> 344 60<215.116 453.495>
LayerCount: 2
Fore
SplineSet
287 609 m 0
 194 609 110 453 110 326 c 0
 110 198 180 66 287 66 c 0
 343 66 380 83 400 94 c 1
 400 44 l 1
 392 36 384 30 349 20 c 0
 303 7 296 6 290 6 c 0
 289 6 288 6 287 6 c 0
 147 6 58 223 58 326 c 0
 58 462 149 676 292 676 c 0
 335 676 358 654 378 620 c 0
 401 580 406 505 406 440 c 0
 406 402 404 367 404 345 c 2
 404 326 l 2
 404 293 394 220 360 174 c 0
 343 151 319 135 287 135 c 0
 209 135 176 218 176 326 c 0
 176 439 206 520 287 520 c 0
 309 520 313 518 317 514 c 0
 325 506 325 504 344 493 c 1
 338 525 332 554 321 577 c 0
 311 596 299 609 287 609 c 0
222 352 m 0
 222 344 224 326 224 326 c 1
 224 320 l 2
 224 298 226 247 244 215 c 0
 254 199 267 186 287 186 c 0
 334 186 344 242 344 291 c 0
 344 362 344 362 344 362 c 2
 344 363 344 364 344 365 c 0
 344 396 342 470 287 470 c 0
 227 470 222 380 222 352 c 0
EndSplineSet
Validated: 1
EndChar

StartChar: asciitilde
Encoding: 125 126 93
Width: 464
VWidth: 833
Flags: HW
HStem: 196 68<264.3 365.35> 278 69<101.06 201.7>
VStem: 69 326
LayerCount: 2
Fore
SplineSet
395 306 m 1
 395 246 l 1
 368 216 339 196 323 196 c 0
 257 196 218 278 143 278 c 0
 113 278 79 246 69 236 c 1
 69 295 l 1
 96 325 126 347 143 347 c 0
 209 347 248 264 323 264 c 0
 352 264 385 296 395 306 c 1
EndSplineSet
Validated: 1
EndChar

StartChar: grave
Encoding: 95 96 94
Width: 464
VWidth: 833
Flags: HW
LayerCount: 2
Fore
SplineSet
254 657 m 1
 298 428 l 1
 240 428 l 1
 166 656 l 1
 254 657 l 1
EndSplineSet
Validated: 1
EndChar

StartChar: exclamdown
Encoding: 160 161 159
Width: 464
VWidth: 833
Flags: HW
LayerCount: 2
Fore
SplineSet
162 588 m 0
 162 623 198 657 234 657 c 0
 269 657 302 623 302 587 c 0
 302 552 269 518 234 518 c 0
 199 518 162 553 162 588 c 0
196 430 m 1
 272 430 l 1
 272 9 l 1
 196 9 l 1
 196 430 l 1
EndSplineSet
Validated: 1
EndChar

StartChar: cent
Encoding: 161 162 160
Width: 464
VWidth: 833
Flags: HW
LayerCount: 2
Fore
SplineSet
404 384 m 1025
320 343 m 1025
268 559 m 1
 268 466 l 1
 276 465 l 2
 324 458 364 430 390 388 c 1
 374 380 341 366 322 356 c 1
 304 375 290 380 268 388 c 1
 268 175 l 1
 289 181 299 185 314 200 c 1
 344 184 351 180 382 159 c 1
 342 99 292 92 268 88 c 1
 268 -11 l 1
 214 -11 l 1
 214 91 l 1
 206 93 l 2
 125 113 74 185 74 281 c 0
 74 377 125 443 206 462 c 2
 214 464 l 1
 214 559 l 1
 268 559 l 1
214 382 m 1
 200 375 l 2
 166 357 144 323 144 281 c 0
 144 239 167 206 200 188 c 2
 214 180 l 1
 214 382 l 1
EndSplineSet
Validated: 1
EndChar

StartChar: sterling
Encoding: 162 163 161
Width: 464
VWidth: 833
Flags: HW
LayerCount: 2
Fore
SplineSet
394 521 m 1
 330 521 l 1
 330 522 l 2
 330 545 328 561 320 573 c 0
 310 590 292 592 266 592 c 0
 196 592 196 522 196 474 c 2
 196 354 l 1
 296 354 l 1
 296 288 l 1
 196 288 l 1
 196 63 l 1
 420 63 l 1
 420 8 l 1
 44 8 l 1
 44 63 l 1
 134 63 l 1
 134 288 l 1
 44 288 l 1
 44 354 l 1
 134 354 l 1
 134 469 l 2
 134 564 170 658 264 658 c 0
 359 658 392 617 394 521 c 1
EndSplineSet
Validated: 1
EndChar

StartChar: currency
Encoding: 163 164 162
Width: 464
VWidth: 833
Flags: HW
LayerCount: 2
Fore
SplineSet
223 311 m 0
 150 311 101 258 101 198 c 0
 101 136 150 81 227 81 c 0
 296 81 359 127 359 192 c 0
 359 255 297 311 223 311 c 0
53 204 m 0
 53 249 71 278 81 294 c 1
 31 344 l 1
 73 384 l 1
 123 336 l 1
 129 339 l 2
 159 355 194 364 229 364 c 0
 285 364 315 344 333 333 c 1
 385 384 l 1
 429 338 l 1
 375 286 l 1
 387 268 405 242 405 196 c 0
 405 155 391 123 383 106 c 1
 433 55 l 1
 391 13 l 1
 341 60 l 1
 335 57 l 2
 302 42 265 35 231 35 c 0
 173 35 139 55 123 64 c 1
 71 13 l 1
 31 55 l 1
 83 108 l 1
 79 114 l 2
 61 141 53 173 53 204 c 0
EndSplineSet
Validated: 1
EndChar

StartChar: yen
Encoding: 164 165 163
Width: 464
VWidth: 833
Flags: HW
LayerCount: 2
Fore
SplineSet
203 334 m 1
 203 336 l 1
 79 658 l 1
 141 658 l 1
 231 365 l 1
 325 658 l 1
 385 658 l 1
 261 336 l 1
 261 334 l 1
 261 322 l 1
 361 322 l 1
 361 288 l 1
 261 288 l 1
 261 196 l 1
 361 196 l 1
 361 163 l 1
 261 163 l 1
 261 10 l 1
 203 10 l 1
 203 163 l 1
 97 163 l 1
 97 195 l 1
 203 195 l 1
 203 288 l 1
 97 288 l 1
 97 321 l 1
 203 321 l 1
 203 334 l 1
EndSplineSet
Validated: 1
EndChar

StartChar: brokenbar
Encoding: 165 166 164
Width: 464
VWidth: 833
Flags: HW
LayerCount: 2
Fore
SplineSet
260 418 m 1
 204 418 l 1
 204 742 l 1
 260 742 l 1
 260 418 l 1
260 -76 m 1
 204 -76 l 1
 204 315 l 1
 260 315 l 1
 260 -76 l 1
EndSplineSet
Validated: 1
EndChar

StartChar: section
Encoding: 166 167 165
Width: 464
VWidth: 833
Flags: HW
LayerCount: 2
Fore
SplineSet
407 274 m 0
 407 249 389 220 355 199 c 2
 343 191 l 1
 355 182 l 2
 378 164 389 145 389 119 c 0
 389 59 326 13 231 13 c 0
 137 13 66 59 57 109 c 1
 131 109 l 1
 138 80 175 57 219 57 c 0
 270 57 315 87 315 124 c 0
 315 159 276 172 235 172 c 0
 147 172 71 232 71 283 c 0
 71 306 88 338 121 361 c 2
 131 368 l 1
 123 376 l 2
 101 397 89 420 89 441 c 0
 89 491 153 548 245 548 c 0
 332 548 400 494 407 433 c 1
 333 433 l 1
 326 470 283 495 239 495 c 0
 198 495 167 472 167 439 c 0
 167 420 180 388 215 388 c 0
 316 388 407 334 407 274 c 0
241 222 m 0
 294 222 329 245 329 276 c 0
 329 288 323 299 315 307 c 0
 298 323 270 331 235 331 c 0
 183 331 147 312 147 280 c 0
 147 248 186 222 241 222 c 0
EndSplineSet
Validated: 1
EndChar

StartChar: dieresis
Encoding: 167 168 166
Width: 464
VWidth: 833
Flags: HW
LayerCount: 2
Fore
SplineSet
263 537 m 0
 263 555 283 575 301 575 c 0
 320 575 339 556 339 538 c 0
 339 519 322 499 303 499 c 0
 285 499 263 519 263 537 c 0
125 537 m 0
 125 555 145 574 165 574 c 0
 183 574 201 556 201 538 c 0
 201 519 182 499 165 499 c 0
 146 499 125 519 125 537 c 0
EndSplineSet
Validated: 1
EndChar

StartChar: copyright
Encoding: 168 169 167
Width: 464
VWidth: 833
Flags: HW
LayerCount: 2
Fore
SplineSet
334 398 m 1
 258 370 l 1
 258 429 258 432 226 432 c 0
 197 432 194 429 194 397 c 0
 194 384 194 367 194 344 c 0
 194 318 194 299 194 283 c 0
 194 253 197 240 226 240 c 0
 249 240 250 258 250 301 c 1
 334 301 l 1
 339 281 342 263 342 247 c 0
 342 185 307 150 236 150 c 0
 158 150 118 195 118 344 c 0
 118 470 160 523 226 523 c 0
 288 523 334 484 334 398 c 1
500 363 m 0
 500 95 395 -1 240 -1 c 0
 99 -1 -36 101 -36 346 c 0
 -36 544 109 662 228 662 c 0
 355 662 500 564 500 363 c 0
228 597 m 0
 138 597 16 513 16 346 c 0
 16 141 130 66 240 66 c 0
 352 66 448 133 448 361 c 0
 448 521 326 597 228 597 c 0
EndSplineSet
Validated: 1
EndChar

StartChar: guillemotleft
Encoding: 170 171 168
Width: 464
VWidth: 833
Flags: HW
LayerCount: 2
Fore
SplineSet
390 353 m 1
 296 267 l 1
 390 175 l 1
 390 113 l 1
 234 267 l 1
 390 411 l 1
 390 353 l 1
228 355 m 1
 124 267 l 1
 228 174 l 1
 228 113 l 1
 74 267 l 1
 228 411 l 1
 228 355 l 1
EndSplineSet
Validated: 1
EndChar

StartChar: logicalnot
Encoding: 171 172 169
Width: 464
VWidth: 833
Flags: HW
LayerCount: 2
Fore
SplineSet
325 282 m 1
 67 282 l 1
 67 346 l 1
 397 346 l 1
 397 152 l 1
 325 152 l 1
 325 282 l 1
EndSplineSet
Validated: 1
EndChar

StartChar: softhyphen
Encoding: 172 173 170
Width: 464
VWidth: 833
Flags: HW
LayerCount: 2
Fore
SplineSet
395 248 m 1
 69 248 l 1
 69 317 l 1
 395 317 l 1
 395 248 l 1
EndSplineSet
Validated: 1
EndChar

StartChar: registered
Encoding: 173 174 171
Width: 464
VWidth: 833
Flags: HW
LayerCount: 2
Fore
SplineSet
189 470 m 1
 189 357 l 1
 201 357 209 357 235 357 c 0
 265 357 293 385 293 416 c 0
 293 445 267 470 235 470 c 0
 211 470 211 470 189 470 c 1
219 313 m 1
 189 313 l 1
 189 150 l 1
 137 150 l 1
 137 521 l 1
 137 521 179 521 259 521 c 0
 301 521 341 466 341 416 c 0
 341 373 310 326 275 316 c 1
 343 150 l 1
 285 150 l 1
 219 313 l 1
477 363 m 1
 470 99 378 -1 223 -1 c 0
 89 -1 -13 101 -13 346 c 0
 -13 544 101 662 223 662 c 0
 345 662 477 564 477 363 c 1
223 597 m 0
 132 597 39 513 39 346 c 0
 39 141 120 66 223 66 c 0
 335 66 420 133 427 361 c 1
 427 521 326 597 223 597 c 0
EndSplineSet
Validated: 1
EndChar

StartChar: macron
Encoding: 174 175 172
Width: 464
VWidth: 833
Flags: HW
LayerCount: 2
Fore
SplineSet
395 712 m 1
 69 712 l 1
 69 781 l 1
 395 781 l 1
 395 712 l 1
EndSplineSet
Validated: 1
EndChar

StartChar: degree
Encoding: 175 176 173
Width: 464
VWidth: 833
Flags: HW
LayerCount: 2
Fore
SplineSet
162 663 m 0
 162 623 193 591 232 591 c 0
 271 591 302 623 302 663 c 0
 302 703 271 736 232 736 c 0
 193 736 162 703 162 663 c 0
120 663 m 0
 120 727 171 778 232 778 c 0
 293 778 344 727 344 663 c 0
 344 599 293 548 232 548 c 0
 171 548 120 599 120 663 c 0
EndSplineSet
Validated: 1
EndChar

StartChar: plusminus
Encoding: 176 177 174
Width: 464
VWidth: 833
Flags: HW
LayerCount: 2
Fore
SplineSet
388 192 m 1
 388 118 l 1
 62 118 l 1
 62 192 l 1
 388 192 l 1
254 570 m 1
 254 466 l 1
 402 466 l 1
 402 398 l 1
 254 398 l 1
 254 296 l 1
 186 296 l 1
 186 398 l 1
 62 398 l 1
 62 466 l 1
 186 466 l 1
 186 570 l 1
 254 570 l 1
EndSplineSet
Validated: 1
EndChar

StartChar: acute
Encoding: 179 180 175
Width: 464
VWidth: 833
Flags: HW
LayerCount: 2
Fore
SplineSet
301 658 m 1
 221 497 l 1
 163 497 l 1
 213 658 l 1
 301 658 l 1
EndSplineSet
Validated: 1
EndChar

StartChar: mu
Encoding: 180 181 176
Width: 464
VWidth: 833
Flags: HW
LayerCount: 2
Fore
SplineSet
429 -17 m 1
 369 -17 l 1
 361 -6 349 48 349 49 c 2
 343 70 l 1
 331 53 l 2
 307 21 285 10 245 10 c 0
 212 10 185 30 159 49 c 0
 154 53 153 53 147 57 c 1
 143 57 l 2
 135 57 133 49 133 42 c 0
 133 40 133 38 133 38 c 2
 133 20 132 -21 125 -62 c 0
 118 -102 95 -143 87 -157 c 1
 35 -157 l 1
 47 -137 69 -100 75 -62 c 0
 80 -31 81 2 81 30 c 2
 81 393 l 1
 145 393 l 1
 145 139 l 1
 154 117 184 66 245 66 c 0
 327 66 343 135 343 137 c 2
 343 393 l 1
 407 393 l 1
 407 51 l 2
 407 37 420 0 429 -17 c 1
EndSplineSet
Validated: 1
EndChar

StartChar: paragraph
Encoding: 181 182 177
Width: 464
VWidth: 833
Flags: HW
LayerCount: 2
Fore
SplineSet
71 485 m 0
 71 555 134 655 195 655 c 2
 393 655 l 1
 393 10 l 1
 345 10 l 1
 345 616 l 1
 249 616 l 1
 249 10 l 1
 199 10 l 1
 199 315 l 1
 199 315 198 315 155 315 c 0
 114 315 71 410 71 485 c 0
EndSplineSet
Validated: 1
EndChar

StartChar: periodcentered
Encoding: 182 183 178
Width: 464
VWidth: 833
Flags: HW
LayerCount: 2
Fore
SplineSet
162 280 m 0
 162 315 199 350 234 350 c 0
 269 350 302 316 302 281 c 0
 302 245 269 211 234 211 c 0
 198 211 162 245 162 280 c 0
EndSplineSet
Validated: 1
EndChar

StartChar: cedilla
Encoding: 183 184 179
Width: 464
VWidth: 833
Flags: HW
LayerCount: 2
Fore
SplineSet
262 -50 m 1
 281 -60 312 -80 312 -111 c 0
 312 -164 249 -167 232 -167 c 0
 231 -167 231 -167 231 -167 c 2
 196 -167 170 -151 152 -133 c 1
 181 -99 l 1
 181 -99 209 -128 232 -128 c 0
 257 -128 265 -120 265 -106 c 0
 265 -86 222 -77 206 -69 c 1
 227 0 l 1
 278 0 l 1
 262 -50 l 1
EndSplineSet
Validated: 1
EndChar

StartChar: guillemotright
Encoding: 184 187 180
Width: 464
VWidth: 833
Flags: HW
LayerCount: 2
Fore
SplineSet
228 267 m 1
 74 113 l 1
 74 175 l 1
 168 267 l 1
 74 353 l 1
 74 411 l 1
 228 267 l 1
390 267 m 1
 234 113 l 1
 234 174 l 1
 340 267 l 1
 234 355 l 1
 234 411 l 1
 390 267 l 1
EndSplineSet
Validated: 1
EndChar

StartChar: onehalf
Encoding: 185 189 181
Width: 464
Flags: HW
LayerCount: 2
Fore
SplineSet
270 95 m 1
 270 138 l 1
 336 207 388 280 388 334 c 0
 388 383 370 386 352 386 c 0
 327 386 319 367 270 326 c 1
 270 378 l 1
 307 409 320 429 352 429 c 0
 396 429 436 392 436 336 c 0
 436 283 392 219 328 138 c 1
 432 138 l 1
 432 95 l 1
 270 95 l 1
28 764 m 1
 76 802 l 1
 112 802 l 1
 112 483 l 1
 164 483 l 1
 164 441 l 1
 28 441 l 1
 28 483 l 1
 76 483 l 1
 76 746 l 1
 28 709 l 1
 28 764 l 1
340 833 m 1
 132 0 l 1
 92 0 l 1
 300 833 l 1
 340 833 l 1
EndSplineSet
Validated: 1
EndChar

StartChar: threequarters
Encoding: 186 190 182
Width: 464
Flags: HW
LayerCount: 2
Fore
SplineSet
168 609 m 1
 194 590 214 557 214 531 c 0
 214 483 174 442 132 442 c 0
 100 442 64 472 44 514 c 1
 84 514 l 1
 96 492 115 478 130 478 c 0
 150 478 168 501 168 527 c 0
 168 561 148 576 128 611 c 1
 148 639 168 656 168 685 c 0
 168 715 151 733 122 733 c 0
 109 733 94 723 84 709 c 1
 84 709 55 709 42 709 c 1
 42 709 76 775 122 775 c 0
 169 775 214 732 214 678 c 0
 214 657 194 627 168 609 c 1
384 833 m 1
 168 0 l 1
 128 0 l 1
 342 833 l 1
 384 833 l 1
280 200 m 1
 280 243 l 1
 350 449 l 1
 390 449 l 1
 390 243 l 1
 422 243 l 1
 422 200 l 1
 390 200 l 1
 390 192 390 182 390 175 c 0
 390 145 392 125 392 89 c 1
 356 89 l 1
 356 200 l 1
 280 200 l 1
356 243 m 1
 356 352 l 1
 320 243 l 1
 356 243 l 1
EndSplineSet
Validated: 1
EndChar

StartChar: questiondown
Encoding: 187 191 183
Width: 464
VWidth: 833
Flags: HW
LayerCount: 2
Fore
SplineSet
226 518 m 0
 191 518 156 553 156 588 c 4
 156 624 189 658 224 658 c 0
 262 658 291 621 291 588 c 4
 291 555 264 518 226 518 c 0
136 160 m 0
 136 90 169 71 236 71 c 0
 294 71 321 112 330 128 c 1
 394 128 l 1
 386 113 371 88 348 64 c 0
 320 35 282 9 236 9 c 0
 192 9 154 19 126 39 c 0
 91 64 70 103 70 160 c 0
 70 188 97 216 128 246 c 0
 158 276 192 308 192 350 c 2
 192 440 l 1
 262 440 l 1
 262 421 262 387 262 350 c 0
 262 286 136 218 136 160 c 0
EndSplineSet
Validated: 1
EndChar

StartChar: AE
Encoding: 194 198 190
Width: 464
VWidth: 833
Flags: HW
HStem: 0 57<290 420> 162 60<162 230> 314 59<290 420> 591 62<290 420>
VStem: 230 190<0 57 314 373> 230 60<57 162 222 314 373 591>
LayerCount: 2
Fore
SplineSet
420 653 m 1xf8
 420 591 l 1xf8
 290 591 l 1
 290 373 l 1xf4
 420 373 l 1
 420 314 l 1xf8
 290 314 l 1
 290 57 l 1xf4
 420 57 l 1
 420 0 l 1
 230 0 l 1xf8
 230 162 l 1xf4
 150 162 l 1
 124 29 122 19 118 0 c 1
 44 0 l 1
 174 653 l 1
 420 653 l 1xf8
230 591 m 1xf4
 162 222 l 1
 230 222 l 1
 230 591 l 1xf4
EndSplineSet
Validated: 1
EndChar

StartChar: Eth
Encoding: 204 208 200
Width: 464
VWidth: 833
Flags: HW
LayerCount: 2
Fore
SplineSet
95 1 m 5
 95 298 l 5
 53 298 l 5
 53 366 l 5
 95 366 l 5
 95 656 l 5
 251 656 l 6
 315 656 411 508 411 328 c 4
 411 163 314 1 251 1 c 6
 95 1 l 5
213 590 m 6
 163 590 l 5
 163 366 l 5
 245 366 l 5
 245 298 l 5
 163 298 l 5
 163 54 l 5
 213 54 l 6
 267 54 353 183 353 328 c 4
 353 481 269 590 213 590 c 6
EndSplineSet
Validated: 1
EndChar

StartChar: multiply
Encoding: 211 215 207
Width: 464
VWidth: 833
Flags: HW
LayerCount: 2
Fore
SplineSet
131 464 m 1
 229 325 l 1
 334 464 l 1
 406 464 l 1
 267 281 l 1
 403 79 l 1
 341 79 l 1
 229 245 l 1
 123 79 l 1
 58 79 l 1
 187 281 l 1
 60 464 l 1
 131 464 l 1
EndSplineSet
Validated: 1
EndChar

StartChar: Oslash
Encoding: 212 216 208
Width: 464
VWidth: 833
Flags: HW
HStem: 1 77<182.568 285.314> 589 69<191.023 287.292>
VStem: 75 65<208.987 507.523> 327 64<140.791 453.74>
LayerCount: 2
Fore
SplineSet
133 1 m 1
 59 1 l 1
 107 114 l 1
 86 169 75 242 75 328 c 0
 75 531 139 658 240 658 c 0
 272 658 298 645 320 621 c 1
 335 658 l 1
 405 658 l 1
 360 550 l 1
 380 495 391 420 391 330 c 0
 391 120 333 1 234 1 c 0
 200 1 173 15 150 41 c 1
 133 1 l 1
294 558 m 1
 280 580 262 589 239 589 c 0
 172 589 140 504 140 325 c 0
 140 281 142 241 146 207 c 1
 294 558 l 1
321 456 m 1
 177 106 l 1
 191 87 208 78 233 78 c 0
 302 78 327 143 327 329 c 0
 327 379 325 421 321 456 c 1
EndSplineSet
Validated: 1
EndChar

StartChar: Thorn
Encoding: 218 222 214
Width: 464
VWidth: 833
Flags: HW
LayerCount: 2
Fore
SplineSet
136 511 m 1
 136 234 l 1
 262 234 l 2
 326 234 326 304 326 373 c 0
 326 374 326 375 326 376 c 0
 326 492 286 511 262 511 c 2
 136 511 l 1
262 172 m 2
 136 172 l 1
 136 12 l 1
 74 12 l 1
 74 654 l 1
 136 654 l 1
 136 574 l 1
 262 574 l 2
 354 574 390 493 390 377 c 0
 390 262 355 172 262 172 c 2
EndSplineSet
Validated: 1
EndChar

StartChar: germandbls
Encoding: 219 223 215
Width: 464
VWidth: 833
Flags: HW
LayerCount: 2
Fore
SplineSet
284 63 m 2
 332 63 334 124 334 173 c 2
 334 174 l 1
 321 249 186 296 186 359 c 0
 186 403 270 464 270 516 c 0
 270 518 270 519 270 521 c 0
 270 552 270 602 216 602 c 0
 160 602 132 535 132 482 c 2
 132 -66 l 1
 70 -66 l 1
 70 482 l 2
 70 575 128 668 216 668 c 0
 303 668 332 607 332 530 c 2
 332 530 332 525 332 515 c 0
 332 483 299 448 270 418 c 0
 250 393 238 376 238 359 c 0
 238 340 255 321 292 288 c 0
 334 255 387 212 394 172 c 1
 394 79 338 20 284 20 c 1
 264 36 190 35 184 106 c 1
 230 106 l 1
 234 63 262 63 276 63 c 2
 284 63 l 2
EndSplineSet
Validated: 1
EndChar

StartChar: ae
Encoding: 226 230 222
Width: 464
VWidth: 833
Flags: HW
HStem: -1 57<283.177 368.197> -1 45<106.931 197.63> 160 49<264 376> 172 54<104.783 199.147> 311 62<102.463 198.263 281.374 359.685>
VStem: 44 50<57.0007 161.034> 206 58<74.019 159.319> 218 46<209 290.917> 376 44<209 295.07>
LayerCount: 2
Fore
SplineSet
156 44 m 0x5e80
 206 44 206 88 206 110 c 0
 206 146 198 172 156 172 c 0
 102 172 94 139 94 110 c 0
 94 45 145 44 156 44 c 0x5e80
380 95 m 1
 404 58 l 1
 376 21 350 -1 320 -1 c 0xad80
 286 -1 263 35 240 73 c 1
 233 56 233 55 232 52 c 0
 224 32 210 -1 156 -1 c 0
 89 -1 44 45 44 110 c 0
 44 174 86 226 154 226 c 0x5d80
 182 226 194 220 218 207 c 1
 218 258 l 1
 206 282 188 311 156 311 c 0
 125 311 102 290 90 278 c 1
 73 297 74 297 64 308 c 1
 74 326 112 373 158 373 c 0
 171 373 201 373 232 325 c 2
 240 311 l 1
 246 326 l 1
 263 358 288 373 320 373 c 0
 368 373 420 314 420 160 c 1
 264 160 l 1
 264 148 266 56 320 56 c 0xad80
 355 56 368 75 380 95 c 1
264 209 m 1
 376 209 l 1
 376 232 372 316 320 316 c 0
 316 316 264 314 264 209 c 1
EndSplineSet
Validated: 1
EndChar

StartChar: eth
Encoding: 236 240 232
Width: 464
VWidth: 833
Flags: HW
LayerCount: 2
Fore
SplineSet
60 214 m 0
 60 325 123 398 206 398 c 2
 214 398 l 2
 253 398 263 394 324 363 c 1
 324 371 318 390 316 390 c 1
 316 390 316 390 316 388 c 1
 316 388 276 490 228 532 c 1
 228 542 222 548 222 538 c 1
 222 539 221 539 220 539 c 0
 205 539 90 477 90 468 c 1
 90 478 90 513 90 513 c 2
 90 522 180 573 194 573 c 1
 166 613 144 640 118 668 c 1
 154 668 l 1
 191 642 223 613 256 595 c 1
 256 604 374 663 390 663 c 0
 391 663 392 663 392 662 c 2
 392 662 392 620 392 610 c 1
 392 611 392 611 390 611 c 0
 377 611 319 582 306 569 c 1
 309 568 312 562 312 555 c 1
 316 551 321 545 326 539 c 0
 367 490 374 467 396 384 c 1
 398 357 404 295 404 224 c 1
 384 76 323 20 216 20 c 0
 124 20 60 101 60 214 c 0
206 312 m 0
 165 312 124 265 124 205 c 0
 124 145 164 98 216 98 c 0
 265 98 310 145 330 205 c 1
 330 265 286 312 206 312 c 0
EndSplineSet
Validated: 1
EndChar

StartChar: divide
Encoding: 243 247 239
Width: 464
VWidth: 833
Flags: HW
LayerCount: 2
Fore
SplineSet
194 120 m 0
 194 138 214 158 232 158 c 0
 251 158 270 139 270 121 c 0
 270 102 251 82 232 82 c 0
 214 82 194 102 194 120 c 0
194 425 m 0
 194 443 212 462 232 462 c 0
 250 462 270 444 270 426 c 0
 270 407 251 387 234 387 c 0
 215 387 194 407 194 425 c 0
388 248 m 1
 76 248 l 1
 76 317 l 1
 388 317 l 1
 388 248 l 1
EndSplineSet
Validated: 1
EndChar

StartChar: oslash
Encoding: 244 248 240
Width: 464
VWidth: 833
Flags: HW
HStem: 0 54<185.615 295.438> 324 56<178.096 287.225>
VStem: 80 49<118.176 270.426> 347 49<111.368 267.232>
LayerCount: 2
Fore
SplineSet
131 0 m 1
 55 0 l 1
 110 72 l 1
 89 105 77 147 77 194 c 0
 77 305 141 380 235 380 c 0
 266 380 294 372 317 357 c 1
 335 382 l 1
 409 382 l 1
 360 314 l 1
 381 283 393 241 393 194 c 0
 393 82 327 0 235 0 c 0
 204 0 175 10 151 27 c 1
 131 0 l 1
235 324 m 0
 169 324 126 258 126 194 c 0
 126 167 131 140 142 117 c 1
 285 312 l 1
 271 320 254 324 235 324 c 0
327 268 m 1
 182 69 l 1
 197 59 214 54 235 54 c 0
 300 54 344 124 344 194 c 0
 344 220 338 246 327 268 c 1
EndSplineSet
Validated: 1
EndChar

StartChar: thorn
Encoding: 250 254 246
Width: 464
VWidth: 833
Flags: HW
LayerCount: 2
Fore
SplineSet
232 88 m 0
 283 88 326 134 326 194 c 0
 326 254 283 301 232 301 c 0
 182 301 140 254 140 194 c 0
 140 134 182 88 232 88 c 0
232 3 m 0
 190 3 167 17 136 36 c 1
 136 31 136 -167 136 -167 c 1
 74 -167 l 1
 74 664 l 1
 136 664 l 1
 136 664 136 360 136 357 c 1
 136 360 150 369 150 366 c 1
 177 383 205 391 232 391 c 0
 323 391 390 310 390 194 c 0
 390 81 325 3 232 3 c 0
EndSplineSet
Validated: 1
EndChar

StartChar: diaeresiscomb
Encoding: 252 776 248
Width: 464
VWidth: 833
Flags: HW
LayerCount: 2
Fore
SplineSet
263 537 m 0
 263 555 283 575 301 575 c 0
 320 575 339 556 339 538 c 0
 339 519 322 499 303 499 c 0
 285 499 263 519 263 537 c 0
125 537 m 0
 125 555 145 574 165 574 c 0
 183 574 201 556 201 538 c 0
 201 519 182 499 165 499 c 0
 146 499 125 519 125 537 c 0
EndSplineSet
Validated: 1
EndChar

StartChar: dotlessi
Encoding: 253 305 249
Width: 464
VWidth: 833
Flags: HW
HStem: 1 63<260.091 388> 312 63<76 199.746> 457 93<178.949 254.901>
VStem: 172 90<463.793 542.272> 196 64<64.0154 312>
LayerCount: 2
Fore
SplineSet
284 64 m 26xe8
 388 64 l 1
 388 1 l 1
 228 1 l 2
 210 1 200 15 200 32 c 2xe8
 200 284 l 2
 200 302 195 312 175 312 c 2
 76 312 l 1
 76 375 l 1
 230 375 l 2
 247 375 262 360 262 343 c 2xf0
 262 343 260 191 260 92 c 24
 260 66 263 64 284 64 c 26xe8
EndSplineSet
Validated: 1
EndChar

StartChar: acutecomb
Encoding: 254 769 250
Width: 464
VWidth: 833
Flags: HW
LayerCount: 2
Fore
SplineSet
301 658 m 1
 221 497 l 1
 163 497 l 1
 213 658 l 1
 301 658 l 1
EndSplineSet
Validated: 1
EndChar

StartChar: gravecomb
Encoding: 255 768 253
Width: 464
VWidth: 833
Flags: HW
LayerCount: 2
Fore
SplineSet
301 497 m 1
 243 497 l 1
 163 658 l 1
 251 658 l 1
 301 497 l 1
EndSplineSet
Validated: 1
EndChar

StartChar: fraction
Encoding: 256 8260 254
Width: 464
VWidth: 833
Flags: HW
LayerCount: 2
Fore
SplineSet
153 11 m 1
 73 11 l 1
 317 658 l 1
 391 658 l 1
 153 11 l 1
EndSplineSet
Validated: 1
EndChar

StartChar: Scaron
Encoding: 159 352 255
Width: 464
Flags: HW
LayerCount: 2
Fore
SplineSet
84 504 m 4xe4
 84 591 144 658 223 658 c 4
 302 658 363 599 387 499 c 5
 317 499 l 5
 301 563 270 597 226 597 c 4
 189 597 157 554 157 505 c 4xe8
 157 384 396 352 396 170 c 4
 396 75 332 1 249 1 c 4
 169 1 110 68 92 179 c 5
 172 179 l 5xd4
 182 114 212 78 255 78 c 4
 297 78 327 112 327 160 c 4
 327 295 84 354 84 504 c 4xe4
220 718 m 5
 68 965 l 5
 138 965 l 5
 220 815 l 5
 312 965 l 5
 378 965 l 5
 220 718 l 5
EndSplineSet
Validated: 1
EndChar

StartChar: circumflexcmb
Encoding: 257 770 257
Width: 464
VWidth: 833
Flags: HW
LayerCount: 2
Fore
SplineSet
229 538 m 1
 379 402 l 1
 319 402 l 1
 231 468 l 1
 151 402 l 1
 85 402 l 1
 229 538 l 1
EndSplineSet
Validated: 1
EndChar

StartChar: tildecomb
Encoding: 258 771 258
Width: 464
VWidth: 833
Flags: HW
LayerCount: 2
Fore
SplineSet
395 306 m 1
 395 246 l 1
 368 216 339 196 323 196 c 0
 257 196 218 278 143 278 c 0
 113 278 79 246 69 236 c 1
 69 295 l 1
 96 325 126 347 143 347 c 0
 209 347 248 264 323 264 c 0
 352 264 385 296 395 306 c 1
EndSplineSet
Validated: 1
EndChar

StartChar: cedillacmb
Encoding: 259 807 259
Width: 464
VWidth: 833
Flags: HW
HStem: -167 39<192.733 264.783> -69 69<227 255.462>
VStem: 265 47<-126.979 -84.049>
LayerCount: 2
Fore
SplineSet
262 -50 m 1
 281 -60 312 -80 312 -111 c 0
 312 -164 249 -167 232 -167 c 0
 231 -167 231 -167 231 -167 c 2
 196 -167 170 -151 152 -133 c 1
 181 -99 l 2
 181 -99 209 -128 232 -128 c 0
 257 -128 265 -120 265 -106 c 0
 265 -86 222 -77 206 -69 c 1
 227 0 l 1
 278 0 l 1
 262 -50 l 1
EndSplineSet
Validated: 1
EndChar

StartChar: ringcmb
Encoding: 260 778 260
Width: 464
VWidth: 833
Flags: HW
LayerCount: 2
Fore
SplineSet
160 663 m 0
 160 623 193 591 232 591 c 0
 271 591 302 623 302 663 c 0
 302 703 271 736 232 736 c 0
 193 736 160 703 160 663 c 0
120 663 m 0
 120 727 171 778 232 778 c 0
 293 778 344 727 344 663 c 0
 344 599 293 548 232 548 c 0
 171 548 120 599 120 663 c 0
EndSplineSet
Validated: 1
EndChar

StartChar: acutedblnosp
Encoding: 261 779 261
Width: 464
VWidth: 833
Flags: HW
LayerCount: 2
Fore
SplineSet
402 658 m 1
 322 497 l 1
 256 497 l 1
 312 658 l 1
 402 658 l 1
208 658 m 1
 120 497 l 1
 62 497 l 1
 114 658 l 1
 208 658 l 1
EndSplineSet
Validated: 1
EndChar

StartChar: onequarter
Encoding: 262 188 262
Width: 464
Flags: HW
LayerCount: 2
Fore
SplineSet
55 764 m 1
 103 802 l 1
 139 802 l 1
 139 483 l 1
 191 483 l 1
 191 441 l 1
 55 441 l 1
 55 483 l 1
 103 483 l 1
 103 746 l 1
 55 709 l 1
 55 764 l 1
371 833 m 1
 159 0 l 1
 119 0 l 1
 331 833 l 1
 371 833 l 1
271 200 m 1
 271 243 l 1
 339 449 l 1
 377 449 l 1
 377 243 l 1
 409 243 l 1
 409 200 l 1
 377 200 l 1
 377 192 377 182 377 175 c 0
 377 145 379 125 379 89 c 1
 343 89 l 1
 343 200 l 1
 271 200 l 1
343 243 m 1
 343 352 l 1
 311 243 l 1
 343 243 l 1
EndSplineSet
Validated: 1
EndChar

StartChar: ht_www
Encoding: 267 -1 267
Width: 1392
Flags: HW
HStem: 0 21G<178.833 273.913 366.667 464.651 546.279 643.167 733.598 832.615 910.346 1006.06 1098.81 1195.98> 357 20G<297.258 359.425 1029.26 1091.43>
VStem: 112 70<397.8 442>
LayerCount: 2
Fore
SplineSet
956 48 m 1
 1034 377 l 1
 1088 377 l 1
 1144 50 l 1
 1212 442 l 1
 1280 442 l 1
 1192 0 l 1
 1102 0 l 1
 1058 276 l 1
 1002 0 l 1
 914 0 l 1
 876 208 l 1
 828 0 l 1
 738 0 l 1
 692 209 l 1
 638 0 l 1
 550 0 l 1
 510 215 l 1
 460 0 l 1
 370 0 l 1
 324 276 l 1
 270 0 l 1
 182 0 l 1
 112 442 l 1
 182 442 l 1
 224 48 l 1
 302 377 l 1
 356 377 l 1
 412 50 l 1
 480 345 l 1
 550 345 l 1
 592 48 l 1
 670 313 l 1
 724 313 l 1
 780 50 l 1
 844 345 l 1
 916 345 l 1
 956 48 l 1
EndSplineSet
Validated: 1
Ligature2: "programming_symbols" w w w
LCarets2: 2 0 0
EndChar

StartChar: ht_comment_open
Encoding: 268 -1 268
Width: 1856
Flags: W
HStem: -167 139<639.5 734.25> 162 78<225 574 803 1815>
VStem: 618 137<-145.5 -49.875> 650 76<59 481>
LayerCount: 2
Fore
SplineSet
1815 162 m 5xc0
 803 162 l 5
 803 240 l 5
 1815 240 l 5
 1815 162 l 5xc0
726 481 m 5xd0
 726 59 l 5
 650 59 l 5
 650 481 l 5
 726 481 l 5xd0
618 -98 m 4xe0
 618 -63 652 -28 688 -28 c 4
 722 -28 755 -62 755 -97 c 4
 755 -133 722 -167 688 -167 c 4
 652 -167 618 -133 618 -98 c 4xe0
371 83 m 5
 371 5 l 5
 41 202 l 5
 371 392 l 5
 371 311 l 5
 225 241 l 5
 574 241 l 5
 574 162 l 5
 220 162 l 5
 371 83 l 5
EndSplineSet
Validated: 1
Ligature2: "called_ligatures-1" less exclam hyphen hyphen
LCarets2: 3 0 0 0
EndChar

StartChar: plus_plus
Encoding: 269 -1 269
Width: 928
Flags: HW
HStem: 243 79<140 264 342 588 666 788>
VStem: 264 78<77 243 322 467> 588 78<77 243 322 467>
LayerCount: 2
Fore
SplineSet
588 322 m 1
 588 467 l 1
 666 467 l 1
 666 322 l 1
 788 322 l 1
 788 243 l 1
 666 243 l 1
 666 77 l 1
 588 77 l 1
 588 243 l 1
 506 243 424 243 342 243 c 1
 342 77 l 1
 264 77 l 1
 264 243 l 1
 140 243 l 1
 140 322 l 1
 264 322 l 1
 264 467 l 1
 342 467 l 1
 342 322 l 1
 588 322 l 1
EndSplineSet
Validated: 1
Ligature2: "programming_symbols" plus plus
LCarets2: 1 0
EndChar

StartChar: divide_equals
Encoding: 273 -1 273
Width: 928
Flags: HW
LayerCount: 2
Fore
SplineSet
800 444 m 5
 800 360 l 5
 348 360 l 5
 311 259 l 5
 800 259 l 5
 800 175 l 5
 280 175 l 5
 218 6 l 5
 128 6 l 5
 374 663 l 5
 460 663 l 5
 379 444 l 5
 800 444 l 5
EndSplineSet
Ligature2: "programming_symbols" slash equal
LCarets2: 1 0
EndChar

StartChar: logical_and
Encoding: 274 -1 274
Width: 928
Flags: HW
LayerCount: 2
Fore
SplineSet
291 511 m 0
 291 549 265 588 229 588 c 0
 193 588 161 549 161 509 c 0
 161 472 185 454 227 427 c 1
 236 433 230 429 245 441 c 0
 269 459 291 476 291 511 c 0
89 517 m 0
 89 602 146 663 229 663 c 0
 314 663 371 601 371 528 c 0
 371 452 307 397 279 373 c 1
 302 339 305 337 323 302 c 0
 353 250 353 250 385 157 c 1
 398 107 417 61 429 5 c 1
 363 5 l 1
 357 40 350 45 335 117 c 1
 327 102 l 1
 300 37 284 5 223 5 c 0
 130 5 89 86 89 194 c 0
 89 302 133 351 163 382 c 1
 139 401 89 440 89 517 c 0
207 79 m 0
 246 79 273 144 297 203 c 1
 269 254 246 292 223 329 c 1
 179 289 153 264 153 193 c 0
 153 125 174 79 207 79 c 0
695 511 m 4
 695 549 669 588 633 588 c 4
 597 588 565 549 565 509 c 4
 565 472 589 454 631 427 c 5
 640 433 634 429 649 441 c 4
 673 459 695 476 695 511 c 4
493 517 m 4
 493 602 550 663 633 663 c 4
 718 663 775 601 775 528 c 4
 775 452 711 397 683 373 c 5
 706 339 709 337 727 302 c 6
 727 302 741 274 749 260 c 5
 755 267 l 6
 771 289 789 333 799 359 c 5
 839 302 l 5
 834 291 831 282 823 264 c 4
 808 232 790 193 781 176 c 5
 794 126 821 61 833 5 c 5
 767 5 l 5
 761 40 754 45 739 117 c 5
 731 102 l 5
 704 37 688 5 627 5 c 4
 534 5 493 86 493 194 c 4
 493 302 537 351 567 382 c 5
 543 401 493 440 493 517 c 4
611 79 m 4
 650 79 677 144 701 203 c 5
 673 254 650 292 627 329 c 5
 583 289 557 264 557 193 c 4
 557 125 578 79 611 79 c 4
EndSplineSet
Ligature2: "programming_symbols" ampersand ampersand
LCarets2: 1 0
EndChar

StartChar: logical_or_equals
Encoding: 276 -1 276
Width: 1440
Flags: H
LayerCount: 2
Fore
SplineSet
386 741 m 1
 386 -77 l 1
 330 -77 l 1
 330 741 l 1
 386 741 l 1
1110 481 m 5
 1110 397 l 5
 625 397 l 1
 625 296 l 1
 1110 296 l 5
 1110 212 l 5
 625 212 l 1
 625 -77 l 1
 569 -77 l 1
 569 741 l 1
 625 741 l 1
 625 481 l 1
 1110 481 l 5
EndSplineSet
Validated: 1
Ligature2: "called_ligatures-1" bar bar equal
LCarets2: 2 0 0
EndChar

StartChar: zero_x
Encoding: 277 -1 277
Width: 960
HStem: 1 77<184.111 301.382> 289 68<727.599 754.924> 579 68<193.586 295.447>
VStem: 85 64<219.871 497.382> 337 64<146.188 439.381> 607 61<170 206.372 439.628 476> 816 59<172 207.798>
LayerCount: 2
Fore
SplineSet
401 334 m 0
 401 116 341 1 243 1 c 0
 145 1 85 113 85 334 c 0
 85 511 149 647 243 647 c 0
 343 647 401 540 401 334 c 0
317 522 m 1
 311 538 295 579 243 579 c 0
 155 579 149 445 149 322 c 0
 149 271 150 271 153 216 c 1
 317 522 l 1
335 447 m 1
 167 125 l 1
 178 102 194 78 243 78 c 0
 325 78 337 141 337 334 c 0
 337 356 337 370 337 382 c 0
 337 399 337 413 335 447 c 1
607 476 m 1
 669 476 l 1
 669 473 739 357 741 357 c 0
 743 357 816 471 816 474 c 1
 875 474 l 1
 873 468 781 323 781 323 c 1
 781 323 875 174 875 172 c 1
 816 172 l 1
 816 175 743 289 741 289 c 0
 739 289 668 173 668 170 c 1
 607 170 l 1
 607 172 697 323 697 323 c 1
 697 323 607 474 607 476 c 1
EndSplineSet
Validated: 1
Ligature2: "programming_symbols" zero x
LCarets2: 1 0
EndChar

StartChar: numbersign_exclam
Encoding: 278 -1 278
Width: 960
HStem: 1 21G<230 291.472 377 437.866> 9 139<669 764.25> 232 64<312 387 449 516> 424 58<172 250 324 397 457 516> 638 20G<710.529 788>
VStem: 240 67<204.824 232 301 365.846> 250 70<376.75 424 482 554.333> 377 60<1 162.7> 408 58<524.111 668> 647 138<31.5947 124.882>
LayerCount: 2
Fore
SplineSet
516 292 m 1xbac0
 516 232 l 1
 447 232 l 1
 437 1 l 1
 428 1 l 1
 388 1 l 1
 377 1 l 1
 387 232 l 1
 307 232 l 1
 290 1 l 1
 280 1 l 1
 240 1 l 1
 230 1 l 1
 240 232 l 1xbd40
 172 232 l 1
 172 303 l 1
 244 301 l 1
 250 424 l 1
 172 424 l 1
 172 482 l 1
 252 482 l 1
 261 668 l 1
 338 668 l 1
 324 482 l 1
 399 482 l 1
 408 668 l 1
 466 668 l 1
 457 483 l 1
 516 483 l 1
 516 423 l 1
 455 423 l 1
 449 294 l 1
 516 292 l 1xbac0
312 298 m 1
 391 296 l 1
 397 423 l 1
 320 424 l 1x3a40
 312 298 l 1
647 78 m 4
 647 113 682 148 718 148 c 4
 752 148 785 114 785 79 c 4
 785 43 752 9 718 9 c 4x7840
 682 9 647 43 647 78 c 4
788 658 m 1
 756 223 l 5
 680 223 l 5
 712 658 l 1
 788 658 l 1
EndSplineSet
Validated: 1
Ligature2: "programming_symbols" numbersign exclam
LCarets2: 1 0
EndChar

StartChar: c_equal
Encoding: 279 -1 279
Width: 960
HStem: 150 84<157 803> 335 84<157 803>
LayerCount: 2
Fore
SplineSet
803 419 m 5
 803 335 l 5
 587 335 373 335 157 335 c 5
 157 419 l 5
 803 419 l 5
803 234 m 5
 803 150 l 5
 587 150 373 150 157 150 c 5
 157 234 l 5
 373 234 587 234 803 234 c 5
EndSplineSet
Validated: 1
Ligature2: "programming_symbols" equal equal
LCarets2: 1 0
EndChar

StartChar: c_not_equal
Encoding: 280 -1 280
Width: 960
Flags: W
HStem: 150 84<157 327 489 803> 335 84<157 449 610 803>
LayerCount: 2
Fore
SplineSet
803 234 m 5
 803 150 l 5
 433 150 l 5
 353 28 l 5
 247 28 l 5
 327 150 l 5
 157 150 l 5
 157 234 l 5
 383 234 l 5
 449 335 l 5
 157 335 l 5
 157 419 l 5
 504 419 l 5
 576 528 l 5
 682 528 l 5
 610 419 l 5
 803 419 l 5
 803 335 l 5
 555 335 l 5
 489 234 l 5
 803 234 l 5
EndSplineSet
Validated: 1
Ligature2: "programming_symbols" exclam equal
LCarets2: 1 0
EndChar

StartChar: less_than_or_equal
Encoding: 281 -1 281
Width: 960
Flags: H
LayerCount: 2
Fore
SplineSet
642 345 m 5
 642 267 l 5
 315 393 l 5
 642 546 l 5
 642 465 l 5
 454 397 l 5
 642 345 l 5
645 197 m 5
 645 129 l 5
 316 129 l 5
 316 197 l 5
 645 197 l 5
EndSplineSet
Validated: 1
Ligature2: "programming_symbols" less equal
LCarets2: 1 0
EndChar

StartChar: greater_than_or_equal
Encoding: 282 -1 282
Width: 960
Flags: HW
LayerCount: 2
Fore
SplineSet
318 345 m 5
 506 397 l 5
 318 465 l 5
 318 546 l 5
 645 393 l 5
 318 267 l 5
 318 345 l 5
315 197 m 5
 644 197 l 5
 644 129 l 5
 315 129 l 5
 315 197 l 5
EndSplineSet
Validated: 1
Ligature2: "programming_symbols" greater equal
EndChar

StartChar: greater_end
Encoding: 290 -1 290
Width: 480
Flags: W
HStem: 243 79<0 271>
LayerCount: 2
Fore
SplineSet
159 74 m 5
 159 166 l 5
 271 243 l 5
 0 243 l 1
 0 322 l 1
 271 322 l 5
 159 391 l 5
 159 482 l 5
 266 417 373 349 479 284 c 5
 159 74 l 5
EndSplineSet
Validated: 1
LCarets2: 1 0
EndChar

StartChar: less_less_equal
Encoding: 295 -1 295
Width: 1440
Flags: H
LayerCount: 2
Fore
SplineSet
1217 472 m 5
 1217 388 l 5
 657 386 l 5
 587 331 l 5
 643 285 l 5
 1217 287 l 5
 1217 203 l 5
 744 201 l 5
 815 143 l 5
 815 43 l 5
 464 331 l 5
 814 622 l 5
 814 510 l 5
 763 470 l 5
 1217 472 l 5
574 142 m 5
 574 43 l 5
 223 330 l 5
 573 623 l 5
 573 520 l 5
 346 330 l 5
 574 142 l 5
EndSplineSet
Validated: 1
Ligature2: "called_ligatures-1" less less equal
LCarets2: 2 0 0
EndChar

StartChar: greater_greater_equal
Encoding: 296 -1 296
Width: 1440
Flags: HW
LayerCount: 2
Fore
SplineSet
469 144 m 1
 697 332 l 1
 470 522 l 1
 470 625 l 1
 656 469 l 1
 1217 469 l 1
 1217 384 l 1
 758 384 l 1
 820 332 l 1
 760 283 l 1
 1217 283 l 1
 1217 198 l 1
 656 198 l 1
 469 45 l 1
 469 144 l 1
223 145 m 1
 451 333 l 1
 224 523 l 1
 224 626 l 1
 574 333 l 1
 223 46 l 1
 223 145 l 1
EndSplineSet
Validated: 1
Ligature2: "called_ligatures-1" greater greater equal
LCarets2: 2 0 0
EndChar

StartChar: bar_equal
Encoding: 297 -1 297
Width: 960
Flags: H
LayerCount: 2
Fore
SplineSet
814 510 m 5
 814 426 l 5
 202 426 l 1
 202 325 l 1
 814 325 l 5
 814 241 l 5
 202 241 l 1
 202 0 l 1
 146 0 l 1
 146 742 l 1
 202 742 l 1
 202 510 l 1
 814 510 l 5
EndSplineSet
Validated: 1
Ligature2: "programming_symbols" bar equal
LCarets2: 1 0
EndChar

StartChar: asciicircum_equal
Encoding: 298 -1 298
Width: 960
Flags: H
LayerCount: 2
Fore
SplineSet
880 419 m 5
 880 335 l 5
 307 335 l 5
 307 419 l 5
 309 419 l 5
 237 547 l 5
 171 422 l 5
 80 422 l 5
 237 680 l 5
 393 419 l 5
 880 419 l 5
880 234 m 5
 880 150 l 5
 307 150 l 5
 307 234 l 5
 880 234 l 5
EndSplineSet
Validated: 1
Ligature2: "programming_symbols" asciicircum equal
LCarets2: 1 0
EndChar

StartChar: less_equal_greater
Encoding: 300 -1 300
Width: 1440
Flags: H
LayerCount: 2
Fore
SplineSet
1035 63 m 5
 1035 151 l 5
 1071 176 l 5
 369 177 l 5
 405 152 l 5
 405 64 l 5
 75 311 l 5
 405 564 l 5
 405 469 l 5
 380 452 l 5
 1069 451 l 5
 1035 476 l 5
 1035 568 l 5
 1365 311 l 5
 1035 63 l 5
1186 366 m 5
 260 368 l 5
 178 311 l 5
 249 261 l 5
 1190 260 l 5
 1262 311 l 5
 1186 366 l 5
EndSplineSet
Validated: 1
LCarets2: 2 0 0
Ligature2: "programming_symbols" less equal greater
EndChar

StartChar: equal_equal_equal
Encoding: 301 -1 301
Width: 1440
HStem: 150 84<79 1361> 335 84<79 1361>
LayerCount: 2
Fore
SplineSet
1361 419 m 5
 1361 335 l 1
 934 335 506 335 79 335 c 1
 79 419 l 5
 1361 419 l 5
1361 234 m 5
 1361 150 l 1
 934 150 506 150 79 150 c 1
 79 234 l 1
 506 234 934 234 1361 234 c 5
EndSplineSet
Validated: 1
LCarets2: 2 0 0
Ligature2: "programming_symbols" equal equal equal
EndChar

StartChar: exclam_equal_equal
Encoding: 302 -1 302
Width: 1440
Flags: HW
LayerCount: 2
Fore
SplineSet
1361 234 m 1
 1361 150 l 1
 654 150 l 1
 574 28 l 1
 471 28 l 1
 551 150 l 1
 79 150 l 1
 79 234 l 1
 607 234 l 1
 673 335 l 1
 79 335 l 1
 79 419 l 1
 728 419 l 1
 800 528 l 1
 903 528 l 1
 831 419 l 1
 1361 419 l 1
 1361 335 l 1
 776 335 l 1
 710 234 l 1
 1361 234 l 1
EndSplineSet
Validated: 1
LCarets2: 2 0 0
Ligature2: "programming_symbols" exclam equal equal
EndChar

StartChar: question_period
Encoding: 304 -1 304
Width: 960
Flags: H
LayerCount: 2
Fore
SplineSet
567 78 m 4
 567 113 604 148 639 148 c 4
 674 148 709 114 709 79 c 4
 709 44 674 9 639 9 c 4
 603 9 567 43 567 78 c 4
331 78 m 0
 331 113 368 148 403 148 c 0
 438 148 473 114 473 79 c 0
 473 44 438 9 403 9 c 0
 367 9 331 43 331 78 c 0
495 506 m 0
 495 574 465 595 403 595 c 0
 351 595 325 552 317 536 c 1
 251 538 l 1
 259 553 275 578 297 602 c 0
 324 632 360 657 403 657 c 0
 489 657 559 607 559 506 c 0
 559 478 532 450 501 420 c 0
 471 390 435 358 435 316 c 0
 435 279 437 243 437 226 c 1
 365 226 l 1
 366 243 367 279 367 316 c 0
 367 380 495 448 495 506 c 0
EndSplineSet
Validated: 1
LCarets2: 1 0
Ligature2: "programming_symbols" question period
EndChar

StartChar: less_asciitilde_greater
Encoding: 305 -1 305
Width: 1440
Flags: H
HStem: 11 21G<403.497 437> 121 68<594.3 695.693> 143 68<899.713 1011.35> 203 69<431.06 531.7 745.502 859.564>
LayerCount: 2
Fore
SplineSet
1003 15 m 5x80
 1003 93 l 5
 1230 212 l 5
 1003 321 l 5
 1003 402 l 5
 1333 212 l 5
 1003 15 l 5x80
437 89 m 5
 437 11 l 5
 107 208 l 5
 437 398 l 5
 437 317 l 5
 210 208 l 5
 437 89 l 5
1041 253 m 5
 1041 193 l 5
 1014 163 985 143 969 143 c 4xa0
 903 143 864 203 789 203 c 4
 766 203 740 184 725 171 c 5
 698 141 669 121 653 121 c 4
 587 121 548 203 473 203 c 4
 443 203 409 171 399 161 c 5
 399 220 l 5
 426 250 456 272 473 272 c 4
 539 272 578 189 653 189 c 4xd0
 677 189 704 211 718 224 c 4
 744 253 773 273 789 273 c 4
 855 273 894 211 969 211 c 4xa0
 998 211 1031 243 1041 253 c 5
EndSplineSet
Validated: 1
LCarets2: 2 0 0
Ligature2: "programming_symbols" less asciitilde greater
EndChar

StartChar: greater_start
Encoding: 311 -1 311
Width: 480
Flags: HW
HStem: 243 79<263 480>
LayerCount: 2
Fore
SplineSet
0 74 m 1
 0 166 l 1
 173 281 l 1
 0 391 l 1
 0 482 l 1
 263 323 l 1
 480 323 l 1
 480 243 l 1
 263 243 l 1
 0 74 l 1
EndSplineSet
Validated: 1
LCarets2: 1 0
EndChar

StartChar: greater_mid
Encoding: 312 -1 312
Width: 480
Flags: HW
HStem: 243 79<-960 -294 -143 480>
LayerCount: 2
Fore
SplineSet
74 74 m 1
 74 166 l 1
 186 243 l 1
 0 243 l 5
 0 322 l 5
 186 322 l 1
 74 391 l 1
 74 482 l 1
 337 322 l 1
 480 322 l 1
 480 243 l 1
 337 243 l 1
 74 74 l 1
EndSplineSet
Validated: 1
LCarets2: 2 0 0
EndChar

StartChar: less_end
Encoding: 313 -1 313
Width: 480
Flags: HW
HStem: 243 79<208 479>
LayerCount: 2
Fore
SplineSet
480 74 m 5
 217 243 l 5
 0 243 l 5
 0 323 l 5
 217 323 l 5
 480 482 l 5
 480 391 l 5
 307 281 l 5
 480 166 l 5
 480 74 l 5
EndSplineSet
Validated: 1
EndChar

StartChar: less_mid
Encoding: 314 -1 314
Width: 480
Flags: HW
HStem: 243 79<774 1440 0 623>
LayerCount: 2
Fore
SplineSet
406 74 m 1
 143 243 l 1
 0 243 l 1
 0 322 l 1
 143 322 l 1
 406 482 l 1
 406 391 l 1
 294 322 l 1
 480 322 l 5
 480 243 l 5
 294 243 l 1
 406 166 l 1
 406 74 l 1
EndSplineSet
Validated: 1
EndChar

StartChar: less_start
Encoding: 315 -1 315
Width: 480
Flags: W
HStem: 243 79<208 479>
LayerCount: 2
Fore
SplineSet
320 74 m 5
 0 284 l 5
 106 349 213 417 320 482 c 5
 320 391 l 5
 208 322 l 5
 479 322 l 1
 479 243 l 1
 208 243 l 5
 320 166 l 5
 320 74 l 5
EndSplineSet
Validated: 1
EndChar

StartChar: bar_left
Encoding: 316 -1 316
Width: 480
Flags: HW
HStem: 243 79<-860 -194 -43 580>
LayerCount: 2
Fore
SplineSet
100 531 m 1
 194 531 l 1
 194 322 l 1
 480 322 l 5
 480 243 l 5
 194 243 l 1
 194 33 l 1
 100 32 l 1
 100 531 l 1
EndSplineSet
Validated: 1
EndChar

StartChar: bar_mid
Encoding: 317 -1 317
Width: 480
Flags: HW
HStem: 243 79<-960 -294 -143 480>
LayerCount: 2
Fore
SplineSet
0 243 m 1
 0 322 l 1
 192 322 l 1
 192 531 l 1
 286 531 l 5
 286 322 l 5
 480 322 l 1
 480 243 l 1
 286 243 l 5
 286 33 l 5
 192 32 l 1
 192 243 l 1
 0 243 l 1
EndSplineSet
Validated: 1
EndChar

StartChar: bar_right
Encoding: 318 -1 318
Width: 480
Flags: HW
HStem: 243 79<-960 -294 -143 480>
LayerCount: 2
Fore
SplineSet
0 243 m 1
 0 322 l 1
 286 322 l 5
 286 531 l 5
 380 531 l 5
 380 33 l 5
 286 32 l 5
 286 243 l 5
 0 243 l 1
EndSplineSet
Validated: 1
EndChar

StartChar: double_greater_start
Encoding: 319 -1 319
Width: 480
Flags: HW
HStem: 243 79<263 480>
LayerCount: 2
Fore
SplineSet
153 74 m 1
 153 166 l 1
 326 281 l 1
 153 391 l 1
 153 482 l 1
 480 284 l 1
 153 74 l 1
EndSplineSet
Validated: 1
EndChar

StartChar: double_less_start
Encoding: 321 -1 321
Width: 480
Flags: W
VStem: 153 327
LayerCount: 2
Fore
SplineSet
480 74 m 5
 153 284 l 5
 480 482 l 5
 480 391 l 5
 307 281 l 5
 480 166 l 5
 480 74 l 5
EndSplineSet
Validated: 1
EndChar

StartChar: double_bar_start
Encoding: 323 -1 323
Width: 480
Flags: HW
HStem: 243 79<-811 -145 6 629>
LayerCount: 2
Fore
SplineSet
286 531 m 5
 380 531 l 5
 380 33 l 5
 286 32 l 5
 286 531 l 5
EndSplineSet
Validated: 1
EndChar

StartChar: double_bar_end
Encoding: 324 -1 324
Width: 480
Flags: HW
HStem: 243 79<-953 -287 -136 487>
LayerCount: 2
Fore
SplineSet
100 531 m 1
 194 531 l 1
 194 33 l 1
 100 32 l 1
 100 531 l 1
EndSplineSet
Validated: 1
EndChar

StartChar: narrow_equal
Encoding: 325 -1 325
Width: 480
VWidth: 833
Flags: W
HStem: 150 84<79 401> 335 84<79 401>
VStem: 79 322<150 234 335 419>
LayerCount: 2
Fore
SplineSet
401 234 m 1
 401 150 l 1
 79 150 l 1
 79 234 l 1
 401 234 l 1
401 419 m 1
 401 335 l 1
 79 335 l 1
 79 419 l 1
 401 419 l 1
EndSplineSet
Validated: 1
EndChar

StartChar: long_dash
Encoding: 326 -1 326
Width: 480
VWidth: 833
Flags: W
HStem: 243 79<0 480>
LayerCount: 2
Fore
SplineSet
480 243 m 5
 0 243 l 1
 0 322 l 1
 480 322 l 5
 480 243 l 5
EndSplineSet
Validated: 1
EndChar

StartChar: ucasecolon
Encoding: 327 -1 327
Width: 480
VWidth: 833
Flags: HW
HStem: 25 138<193.779 289.125> 232 139<193.779 289.125>
VStem: 170 140<47.0713 139.707 254.732 347.161>
LayerCount: 2
Fore
SplineSet
170 432 m 4
 170 467 207 502 242 502 c 4
 277 502 310 468 310 433 c 4
 310 397 277 363 242 363 c 4
 206 363 170 397 170 432 c 4
170 224 m 4
 170 259 207 294 242 294 c 4
 277 294 310 261 310 226 c 4
 310 190 277 156 242 156 c 4
 206 156 170 189 170 224 c 4
EndSplineSet
Validated: 1
EndChar
